<?xml version="1.0" encoding="UTF-8" standalone="no"?>
<!-- Created with Inkscape (http://www.inkscape.org/) -->

<svg
   xmlns:dc="http://purl.org/dc/elements/1.1/"
   xmlns:cc="http://creativecommons.org/ns#"
   xmlns:rdf="http://www.w3.org/1999/02/22-rdf-syntax-ns#"
   xmlns:svg="http://www.w3.org/2000/svg"
   xmlns="http://www.w3.org/2000/svg"
   xmlns:sodipodi="http://sodipodi.sourceforge.net/DTD/sodipodi-0.dtd"
   xmlns:inkscape="http://www.inkscape.org/namespaces/inkscape"
   width="180mm"
   height="28mm"
   viewBox="0 0 180 28"
   version="1.1"
   id="svg8"
   inkscape:version="0.92.3 (2405546, 2018-03-11)"
   sodipodi:docname="cq-em-portugues.svg">
  <defs
     id="defs2" />
  <sodipodi:namedview
     id="base"
     pagecolor="#ffffff"
     bordercolor="#666666"
     borderopacity="1.0"
     inkscape:pageopacity="0.0"
     inkscape:pageshadow="2"
     inkscape:zoom="0.49497475"
     inkscape:cx="299.0088"
     inkscape:cy="221.68759"
     inkscape:document-units="mm"
     inkscape:current-layer="layer1"
     showgrid="false"
     inkscape:window-width="1325"
     inkscape:window-height="713"
     inkscape:window-x="41"
     inkscape:window-y="27"
     inkscape:window-maximized="1" />
  <metadata
     id="metadata5">
    <rdf:RDF>
      <cc:Work
         rdf:about="">
        <dc:format>image/svg+xml</dc:format>
        <dc:type
           rdf:resource="http://purl.org/dc/dcmitype/StillImage" />
        <dc:title />
      </cc:Work>
    </rdf:RDF>
  </metadata>
  <g
     inkscape:label="Camada 1"
     inkscape:groupmode="layer"
     id="layer1"
     transform="translate(0,-269)">
    <rect
       style="fill:#00eba7;fill-opacity:1;stroke-width:0.60197765;paint-order:stroke fill markers"
       id="rect815"
       width="180"
       height="28"
       x="0"
       y="269" />
    <g
       id="g888"
       transform="translate(72.040487,14.681474)"
       style="fill:#000000">
      <path
         style="fill:#000000;stroke-width:0.17113197"
         d="m 68.670189,278.84899 c -1.691064,-0.86807 -1.770548,-2.13107 -0.217647,-3.45844 l 0.801399,-0.68502 -0.463008,-0.3642 c -0.749871,-0.58985 -0.630904,-1.20167 0.435435,-2.23937 0.845917,-0.82319 0.878513,-0.88575 0.557558,-1.07012 -1.68527,-0.96807 -2.111479,-2.93262 -0.996494,-4.59321 0.983646,-1.46498 2.79913,-1.9574 4.723216,-1.28109 0.486058,0.17085 1.338062,0.28783 2.096367,0.28783 h 1.277509 v 0.5134 c 0,0.50224 -0.01865,0.51339 -0.85892,0.51339 -0.854635,0 -0.858268,0.002 -0.728085,0.47061 0.07196,0.25884 0.122904,0.90583 0.113209,1.43776 -0.02233,1.22498 -0.500249,2.03747 -1.565801,2.66192 -0.664004,0.38914 -0.970943,0.45724 -1.990049,0.44153 -1.168855,-0.018 -1.222146,-3.4e-4 -1.778876,0.58997 -0.836257,0.88669 -0.58652,1.03376 2.10746,1.2411 3.037093,0.23375 3.195927,0.27156 3.791841,0.90261 1.371032,1.45189 0.657167,3.23588 -1.773702,4.43259 -1.025262,0.50474 -1.331393,0.57127 -2.868958,0.62346 -1.611212,0.0547 -1.781388,0.0276 -2.662454,-0.42472 z m 6.103074,-1.35057 c 0.963118,-0.4651 1.403923,-1.18823 1.086208,-1.78188 -0.251263,-0.46949 -0.575423,-0.5371 -3.393795,-0.70785 -2.609368,-0.15808 -2.62351,-0.15698 -2.94398,0.23009 -0.913256,1.10305 -0.801988,1.93528 0.323417,2.41904 0.886712,0.38114 1.312283,0.43444 2.761111,0.3458 0.893137,-0.0546 1.552209,-0.20829 2.167039,-0.5052 z m -1.698371,-6.83857 c 0.560294,-0.39245 0.758831,-1.33727 0.542293,-2.58073 -0.226995,-1.3035 -0.664949,-2.0425 -1.425348,-2.40511 -1.17837,-0.56192 -2.152592,0.32788 -2.152592,1.96606 0,0.94628 0.373393,2.15752 0.817383,2.65148 0.579009,0.64418 1.58575,0.81133 2.218264,0.3683 z m -116.239445,7.73443 c -1.548368,-0.51486 -2.732153,-1.40309 -3.517774,-2.63949 -0.351873,-0.55377 -0.749718,-0.87205 -1.658111,-1.3265 -2.193186,-1.09721 -3.490724,-2.96801 -3.811099,-5.49487 -0.462348,-3.64663 1.012182,-6.64186 3.938591,-8.00049 0.978928,-0.45449 1.341738,-0.5249 3.024631,-0.58704 1.500538,-0.0554 2.108511,-0.006 2.823677,0.22755 3.284449,1.07444 4.936432,3.47835 4.930974,7.17538 -0.0035,2.38305 -0.77068,4.32431 -2.216917,5.60978 -0.799347,0.7105 -2.258252,1.49441 -2.786661,1.49736 -0.960889,0.005 0.53676,1.69046 1.82231,2.05039 0.497161,0.1392 1.177749,0.18396 1.80317,0.11859 0.770019,-0.0805 1.025765,-0.0498 1.095255,0.13125 0.355996,0.92771 -3.646229,1.83723 -5.448046,1.23809 z m 1.42174,-1.10612 c -0.790445,-0.4655 -1.297844,-0.94471 -1.803419,-1.70322 -0.221495,-0.33231 -0.406309,-0.38505 -1.349323,-0.38505 -0.600971,0 -1.092676,0.0599 -1.092676,0.13299 0,0.24531 0.965133,1.19285 1.664989,1.63465 0.853692,0.53891 1.609108,0.76467 2.613311,0.78099 l 0.770093,0.0125 -0.802975,-0.47288 z m -1.795537,-3.13597 c 1.759952,-0.90419 2.439082,-3.00802 2.302601,-7.13304 -0.08266,-2.49825 -0.325026,-3.53952 -1.08415,-4.65775 -0.827813,-1.21941 -2.357444,-1.65855 -3.703352,-1.06319 -0.979536,0.4333 -1.544826,1.18031 -2.037523,2.69254 -0.521037,1.5992 -0.568892,5.57572 -0.0865,7.18754 0.663851,2.21813 1.656855,3.16594 3.316907,3.16594 0.50502,0 1.086429,-0.0864 1.292017,-0.19204 z m -4.931445,-1.4535 c -0.63516,-1.32717 -0.7614,-2.15837 -0.763729,-5.02861 -0.0023,-2.87713 0.177248,-3.91146 0.905266,-5.21403 l 0.430597,-0.77042 -0.515191,0.26641 c -1.904969,0.9851 -2.945636,2.99651 -2.958407,5.71804 -0.0098,2.09635 0.38311,3.32182 1.44419,4.50394 0.671612,0.74822 1.702061,1.55479 1.826885,1.42997 0.02368,-0.0237 -0.142649,-0.43106 -0.369611,-0.9053 z m 8.566687,-0.27355 c 0.317368,-0.34958 0.791446,-1.04266 1.053509,-1.54019 0.451215,-0.85662 0.476269,-1.02253 0.472524,-3.1293 -0.0036,-2.02391 -0.04355,-2.30977 -0.442627,-3.16704 -0.469113,-1.0077 -1.561316,-2.22973 -2.363708,-2.64466 l -0.490998,-0.2539 0.413535,0.85721 c 0.673932,1.397 0.914713,2.77986 0.917468,5.26925 0.0027,2.39647 -0.236059,3.77797 -0.866243,5.01323 -0.181033,0.35486 -0.329152,0.69112 -0.329152,0.74726 0,0.2178 1.087491,-0.54802 1.635692,-1.15186 z m 11.921813,5.93099 c -0.439286,-0.30769 -0.493966,-0.79532 -0.123645,-1.10265 0.141184,-0.11718 0.256698,-0.39596 0.256698,-0.61952 0,-0.22357 0.269533,-0.78165 0.598962,-1.2402 0.649468,-0.90401 0.742706,-1.30001 0.342264,-1.45368 -0.141184,-0.0542 -0.256698,-0.25494 -0.256698,-0.44614 0,-0.27217 -0.111445,-0.34763 -0.513396,-0.34763 -0.456352,0 -0.513396,-0.0571 -0.513396,-0.5134 0,-0.39931 -0.07606,-0.51339 -0.342264,-0.51339 -0.188245,0 -0.342264,-0.077 -0.342264,-0.17114 0,-0.28568 -0.735953,-0.19066 -1.330409,0.17178 -0.308172,0.18789 -0.857061,0.34162 -1.219751,0.34162 -0.377396,0 -0.750556,0.10979 -0.872479,0.2567 -0.28789,0.34688 -0.7423,0.32334 -1.085834,-0.0563 -0.362964,-0.40107 -0.356882,-0.59413 0.02973,-0.94401 0.419504,-0.37965 0.83586,-0.35721 1.095814,0.059 0.298188,0.47747 1.137701,0.43991 1.912022,-0.0856 0.346744,-0.23531 0.819546,-0.42783 1.050673,-0.42783 0.231126,0 0.42023,-0.077 0.42023,-0.17114 0,-0.0941 0.154019,-0.17113 0.342264,-0.17113 0.190147,0 0.342264,-0.11409 0.342264,-0.2567 0,-0.14261 -0.152117,-0.25669 -0.342264,-0.25669 -0.188245,0 -0.342264,-0.077 -0.342264,-0.17114 0,-0.0941 -0.419006,-0.17113 -0.931125,-0.17113 -0.51212,0 -0.978721,0.077 -1.036892,0.17113 -0.159755,0.25849 -0.871125,0.20511 -1.110513,-0.0833 -0.121131,-0.14595 -0.165167,-0.43787 -0.103261,-0.68453 0.0854,-0.34025 0.215581,-0.43005 0.623444,-0.43005 0.30036,0 0.556617,0.10713 0.614009,0.2567 0.113591,0.29601 1.944338,0.37657 1.944338,0.0856 0,-0.0941 0.154019,-0.17113 0.342264,-0.17113 0.226356,0 0.342264,-0.11409 0.342264,-0.33689 0,-0.22831 -0.08227,-0.30532 -0.255255,-0.23894 -0.14574,0.0559 -0.300443,-0.0198 -0.360574,-0.17651 -0.153922,-0.40111 -3.070047,-0.39901 -3.51375,0.003 -0.70137,0.63473 -1.710346,-0.27597 -1.078848,-0.97377 0.385545,-0.42602 0.870516,-0.42081 1.140974,0.0123 0.188749,0.30223 0.399085,0.34227 1.798337,0.34227 0.942304,0 1.584588,-0.0694 1.584588,-0.17114 0,-0.0941 0.154019,-0.17113 0.342264,-0.17113 0.228176,0 0.342264,-0.11409 0.342264,-0.34226 0,-0.22818 -0.114088,-0.34227 -0.342264,-0.34227 -0.188245,0 -0.342264,-0.077 -0.342264,-0.17113 0,-0.0941 -0.125676,-0.17113 -0.279282,-0.17113 -0.153605,0 -0.541186,-0.16187 -0.86129,-0.3597 -0.45561,-0.28158 -0.738744,-0.33628 -1.30369,-0.25184 -1.707911,0.25527 -1.748471,0.24564 -1.748471,-0.41525 0,-0.55093 0.0447,-0.60327 0.557356,-0.65268 0.38386,-0.037 0.589322,0.0296 0.660053,0.21392 0.06938,0.1808 0.323966,0.26763 0.784708,0.26763 0.422883,0 0.847331,0.13004 1.117128,0.34226 0.459652,0.36156 1.073488,0.45942 1.073488,0.17113 0,-0.0941 0.154019,-0.17113 0.342264,-0.17113 0.266206,0 0.342264,-0.11409 0.342264,-0.51339 0,-0.45636 0.05704,-0.5134 0.513396,-0.5134 0.399307,0 0.513396,-0.0761 0.513396,-0.34226 0,-0.19015 0.114089,-0.34227 0.256698,-0.34227 0.383837,0 0.322916,-0.91382 -0.08557,-1.28349 -0.213872,-0.19355 -0.342264,-0.52708 -0.342264,-0.88911 0,-0.31865 -0.157376,-0.79223 -0.349725,-1.0524 -0.564166,-0.76307 0.03178,-1.49822 0.856657,-1.05676 0.410548,0.21972 0.473024,0.9933 0.09203,1.1395 -0.381465,0.14638 -0.32659,1.1991 0.08557,1.6415 0.199398,0.21403 0.342264,0.60392 0.342264,0.93407 0,0.31168 0.07701,0.56669 0.171132,0.56669 0.09412,0 0.171132,0.15402 0.171132,0.34227 0,0.22817 0.114088,0.34226 0.342264,0.34226 0.228175,0 0.342264,-0.11409 0.342264,-0.34226 0,-0.18825 0.07701,-0.34227 0.171132,-0.34227 0.09754,0 0.171132,-0.50729 0.171132,-1.17961 0,-0.89068 -0.06288,-1.20375 -0.256698,-1.27812 -0.380995,-0.1462 -0.318518,-0.91978 0.09203,-1.1395 0.44085,-0.23594 1.014044,-0.0627 1.040604,0.31447 0.03681,0.52275 -0.04971,0.79956 -0.293262,0.9382 -0.355217,0.20221 -0.340333,2.34456 0.01629,2.34456 0.14261,0 0.256698,0.15212 0.256698,0.34227 0,0.19014 0.114089,0.34226 0.256698,0.34226 0.14261,0 0.256698,-0.15212 0.256698,-0.34226 0,-0.19015 0.114089,-0.34227 0.256698,-0.34227 0.19123,0 0.256698,-0.20216 0.256698,-0.79268 0,-0.50386 0.129545,-1.00228 0.355546,-1.36796 l 0.355545,-0.57528 -0.358555,-0.45583 c -0.3164,-0.40224 -0.330646,-0.49794 -0.121184,-0.81397 0.288024,-0.43457 0.724994,-0.54408 1.060359,-0.26576 0.323039,0.2681 0.31854,0.91992 -0.0082,1.19111 -0.141184,0.11717 -0.256698,0.36473 -0.256698,0.55014 0,0.1854 -0.154019,0.5329 -0.342264,0.77221 -0.357782,0.45485 -0.484637,1.75802 -0.171132,1.75802 0.09412,0 0.171132,0.15402 0.171132,0.34227 0,0.22817 0.114089,0.34226 0.342264,0.34226 0.228175,0 0.342264,-0.11409 0.342264,-0.34226 0,-0.18825 0.07701,-0.34227 0.171132,-0.34227 0.09412,0 0.171132,-0.1788 0.171132,-0.39734 0,-0.21854 0.228886,-0.69985 0.508635,-1.06958 0.566596,-0.74883 0.651712,-1.33321 0.252351,-1.73257 -0.607926,-0.60793 0.05619,-1.47836 0.851478,-1.116 0.495391,0.22571 0.57826,0.73127 0.184422,1.1251 -0.141184,0.14119 -0.256698,0.44101 -0.256698,0.66627 0,0.22526 -0.228886,0.71207 -0.508635,1.0818 -0.497969,0.65813 -0.686645,1.44232 -0.347025,1.44232 0.09412,0 0.171132,0.15402 0.171132,0.34227 0,0.2662 0.114088,0.34226 0.513396,0.34226 0.456352,0 0.513396,0.057 0.513396,0.5134 0,0.3993 0.07606,0.51339 0.342264,0.51339 0.188245,0 0.342264,0.077 0.342264,0.17113 0,0.30026 0.964723,0.18365 1.415752,-0.17113 0.269796,-0.21222 0.694245,-0.34226 1.117127,-0.34226 0.460742,0 0.715329,-0.0868 0.784709,-0.26763 0.07073,-0.18432 0.276193,-0.25091 0.660052,-0.21392 0.431895,0.0416 0.569945,0.14251 0.613276,0.44818 0.03076,0.21696 -0.03643,0.50575 -0.149303,0.64175 -0.234555,0.28262 -0.946594,0.33171 -1.10454,0.0762 -0.180373,-0.29186 -1.342956,-0.18617 -1.882452,0.17113 -0.282367,0.187 -0.725171,0.34051 -0.984009,0.34113 -0.258837,6.2e-4 -0.470612,0.0781 -0.470612,0.17226 0,0.0941 -0.154019,0.17113 -0.342264,0.17113 -0.228176,0 -0.342264,0.11409 -0.342264,0.34227 0,0.22817 0.114088,0.34226 0.342264,0.34226 0.188245,0 0.342264,0.077 0.342264,0.17113 0,0.10119 0.618642,0.17114 1.513663,0.17114 1.296329,0 1.55814,-0.0491 1.82341,-0.34227 0.350107,-0.38686 0.774307,-0.44073 1.078131,-0.1369 0.283696,0.28369 0.257325,0.90753 -0.04912,1.16185 -0.27863,0.23124 -1.114581,0.10183 -1.114581,-0.17255 0,-0.0978 -0.670716,-0.16787 -1.607444,-0.16787 -1.317191,0 -1.626463,0.0496 -1.712763,0.27445 -0.06013,0.1567 -0.214834,0.23243 -0.360573,0.17651 -0.172982,-0.0664 -0.255255,0.0106 -0.255255,0.23894 0,0.2228 0.115907,0.33689 0.342264,0.33689 0.188245,0 0.342264,0.077 0.342264,0.17113 0,0.28979 1.707323,0.20954 1.820565,-0.0856 0.05576,-0.14532 0.310712,-0.2567 0.587571,-0.2567 0.60841,0 0.945889,0.51547 0.672239,1.02679 -0.192049,0.35885 -0.92651,0.47184 -1.112358,0.17113 -0.138035,-0.22334 -1.968017,-0.22334 -1.968017,0 0,0.0941 -0.154019,0.17114 -0.342264,0.17114 -0.190147,0 -0.342264,0.11408 -0.342264,0.25669 0,0.14261 0.152117,0.2567 0.342264,0.2567 0.188245,0 0.342264,0.077 0.342264,0.17113 0,0.0941 0.263623,0.17114 0.58583,0.17114 0.375214,0 0.768629,0.15381 1.09428,0.42783 0.613487,0.51621 1.238042,0.54846 1.656963,0.0856 0.531086,-0.58684 1.28349,-0.33604 1.28349,0.42783 0,0.70123 -0.768643,1.03065 -1.197924,0.5134 -0.127819,-0.15401 -0.502103,-0.2567 -0.935657,-0.2567 -0.505279,0 -0.815776,-0.10294 -1.032361,-0.34226 -0.323076,-0.357 -1.454621,-0.49012 -1.454621,-0.17114 0,0.0941 -0.154019,0.17114 -0.342264,0.17114 -0.266206,0 -0.342264,0.11408 -0.342264,0.51339 0,0.45635 -0.05704,0.5134 -0.513396,0.5134 -0.394105,0 -0.513396,0.0772 -0.513396,0.33216 0,0.18269 -0.07701,0.37976 -0.171132,0.43793 -0.305448,0.18878 -0.191784,1.21175 0.171132,1.54019 0.225497,0.20407 0.342264,0.52708 0.342264,0.94679 0,0.3575 0.112646,0.73054 0.256698,0.8501 0.346886,0.28789 0.323342,0.7423 -0.05626,1.08583 -0.40107,0.36296 -0.594128,0.35688 -0.94401,-0.0297 -0.352031,-0.38899 -0.361797,-0.77785 -0.02652,-1.0561 0.372792,-0.30939 0.322969,-1.25604 -0.08557,-1.62576 -0.229216,-0.20744 -0.342264,-0.52708 -0.342264,-0.96775 0,-0.3619 -0.07701,-0.658 -0.171132,-0.658 -0.09412,0 -0.171132,-0.19253 -0.171132,-0.42783 0,-0.31374 -0.09127,-0.42783 -0.342264,-0.42783 -0.250994,0 -0.342264,0.11409 -0.342264,0.42783 0,0.2353 -0.07701,0.42783 -0.171132,0.42783 -0.09779,0 -0.171132,0.51339 -0.171132,1.19792 0,0.66902 0.07412,1.19793 0.167872,1.19793 0.274376,0 0.403789,0.83595 0.172547,1.11458 -0.311001,0.37473 -0.980706,0.31464 -1.207064,-0.10832 -0.15893,-0.29696 -0.12897,-0.45097 0.16511,-0.84873 0.453218,-0.61301 0.531165,-2.55338 0.102573,-2.55338 -0.159722,0 -0.256698,-0.16163 -0.256698,-0.42783 0,-0.26621 -0.09698,-0.42783 -0.256698,-0.42783 -0.159722,0 -0.256698,0.16162 -0.256698,0.42783 0,0.2662 -0.09698,0.42783 -0.256698,0.42783 -0.195095,0 -0.257611,0.2156 -0.260503,0.89844 -0.0027,0.6273 -0.1048,1.02756 -0.338458,1.32627 -0.419803,0.53669 -0.419803,0.60699 0,1.0268 0.188245,0.18824 0.342264,0.41927 0.342264,0.51339 0,0.21559 -0.630928,0.85566 -0.843436,0.85566 -0.268527,0 -0.696752,-0.52052 -0.696752,-0.84693 0,-0.16999 0.115514,-0.40495 0.256698,-0.52212 0.141184,-0.11718 0.256985,-0.33838 0.257338,-0.49157 3.42e-4,-0.15319 0.154369,-0.53067 0.342264,-0.83884 0.354058,-0.58071 0.473014,-1.9211 0.170492,-1.9211 -0.09412,0 -0.171132,-0.19253 -0.171132,-0.42783 0,-0.31374 -0.09127,-0.42783 -0.342264,-0.42783 -0.250994,0 -0.342264,0.11409 -0.342264,0.42783 0,0.2353 -0.07701,0.42783 -0.171132,0.42783 -0.09412,0 -0.171132,0.19319 -0.171132,0.42931 0,0.23612 -0.231028,0.74824 -0.513396,1.13803 -0.563823,0.77834 -0.651897,1.35618 -0.256698,1.68417 0.332715,0.27612 0.327331,0.76057 -0.01222,1.10013 -0.33408,0.33408 -0.41722,0.33432 -0.890923,0.003 z m 0.646449,-0.49359 c 0,-0.13563 -0.07169,-0.29091 -0.159307,-0.34506 -0.203457,-0.12574 -0.408083,0.19471 -0.268523,0.42052 0.157366,0.25463 0.42783,0.20692 0.42783,-0.0755 z m 2.148365,0.0605 c 0.06324,-0.10232 0.04789,-0.25313 -0.03411,-0.33514 -0.202395,-0.20239 -0.647841,0.0922 -0.500323,0.33092 0.149492,0.24188 0.386397,0.24375 0.534436,0.004 z m 5.006599,-0.11344 c -0.06947,-0.36071 -0.373184,-0.33797 -0.450582,0.0337 -0.03228,0.15504 0.06205,0.26574 0.226463,0.26574 0.176259,0 0.260194,-0.11216 0.224119,-0.29949 z m -2.43701,-0.57531 c 0.147518,-0.23869 -0.297928,-0.53331 -0.500323,-0.33091 -0.164615,0.16461 -0.006,0.52118 0.2318,0.52118 0.08301,0 0.203849,-0.0856 0.268523,-0.19027 z m -3.691162,-3.9169 c 0,-0.0941 -0.07701,-0.17113 -0.171132,-0.17113 -0.09412,0 -0.171132,0.077 -0.171132,0.17113 0,0.0941 0.07701,0.17113 0.171132,0.17113 0.09412,0 0.171132,-0.077 0.171132,-0.17113 z m 6.331883,-4.44943 v -3.93604 h -3.85047 -3.850469 v 3.93604 3.93603 h 3.850469 3.85047 z m -6.863602,1.4974 c -0.03207,-2.47085 0.04181,-3.97393 0.203561,-4.14139 0.0955,-0.0989 0.157026,0.95718 0.157026,2.69533 0,1.79118 -0.06388,2.8579 -0.171132,2.8579 -0.09878,0 -0.178879,-0.59691 -0.189455,-1.41184 z m 4.810018,1.17552 c 0,-0.12998 0.197437,-0.76087 0.438748,-1.40197 l 0.438748,-1.16565 -0.459092,-1.25875 c -0.252502,-0.69232 -0.416557,-1.30129 -0.364568,-1.35328 0.201721,-0.20172 0.448332,0.15935 0.906586,1.32737 l 0.476491,1.21449 -0.308089,0.88088 c -0.16945,0.48448 -0.42452,1.13115 -0.566823,1.43705 -0.265689,0.57113 -0.562001,0.73977 -0.562001,0.31986 z m -2.630321,-0.60211 c 0.08038,-0.40188 0.03086,-0.51787 -0.260579,-0.61037 -0.447756,-0.14211 -0.607616,-0.72519 -0.370098,-1.34991 0.219045,-0.57614 0.222937,-1.03987 0.0042,-0.49558 -0.189996,0.47268 -0.508063,0.50554 -0.508063,0.0525 0,-0.38609 0.620182,-0.87932 0.94764,-0.75366 0.347226,0.13325 0.416509,0.49067 0.227675,1.17458 -0.194281,0.70362 -0.05989,1.39203 0.183192,0.93843 0.07566,-0.14118 0.313219,-0.96903 0.527904,-1.83967 0.269362,-1.09236 0.467507,-1.58297 0.639329,-1.58297 0.169859,0 0.209936,0.0952 0.126105,0.29948 -0.157895,0.3848 -0.781594,3.168 -0.723051,3.22655 0.02438,0.0244 0.23571,-0.10003 0.46961,-0.27648 0.354257,-0.26724 0.42031,-0.45104 0.395558,-1.10065 -0.02599,-0.6822 0.01429,-0.77984 0.321738,-0.77984 0.317708,0 0.342714,0.0775 0.260455,0.80732 -0.07015,0.62237 -0.213092,0.91642 -0.623919,1.28349 -0.293106,0.26189 -0.641101,0.47617 -0.773321,0.47617 -0.13222,0 -0.291143,0.23102 -0.353162,0.51339 -0.151249,0.68864 -0.628803,0.70539 -0.491171,0.0172 z m -7.928039,1.26861 c 0.01856,-0.0928 -0.101023,-0.19475 -0.265737,-0.22647 -0.187321,-0.0361 -0.299481,0.0479 -0.299481,0.22412 0,0.29774 0.505746,0.29983 0.565218,0.002 z m 17.917035,-0.002 c 0,-0.14118 -0.115514,-0.2567 -0.256698,-0.2567 -0.141184,0 -0.256698,0.11552 -0.256698,0.2567 0,0.14119 0.115514,0.2567 0.256698,0.2567 0.141184,0 0.256698,-0.11551 0.256698,-0.2567 z m -16.565575,-2.68677 c -0.159723,-0.15972 -0.252577,-0.15814 -0.417843,0.007 -0.169225,0.16922 -0.160805,0.24442 0.04135,0.36936 0.343178,0.2121 0.654126,-0.0988 0.37649,-0.37649 z m 15.062466,0.003 c -0.261407,-0.2614 -0.454294,-0.0685 -0.309309,0.30931 0.08561,0.22309 0.159824,0.24519 0.312066,0.093 0.152244,-0.15225 0.151587,-0.24791 -0.0028,-0.40226 z m -16.413926,-1.59203 c 0.01856,-0.0928 -0.101023,-0.19475 -0.265737,-0.22647 -0.187321,-0.0361 -0.299481,0.0479 -0.299481,0.22412 0,0.29774 0.505746,0.29983 0.565218,0.002 z m 17.917035,-0.002 c 0,-0.14118 -0.115514,-0.2567 -0.256698,-0.2567 -0.141184,0 -0.256698,0.11552 -0.256698,0.2567 0,0.14119 0.115514,0.2567 0.256698,0.2567 0.141184,0 0.256698,-0.11551 0.256698,-0.2567 z m -17.56681,-2.39036 c 0.120689,-0.31452 -0.200171,-0.53251 -0.436273,-0.29641 -0.182668,0.18267 -0.05128,0.54762 0.197149,0.54762 0.0785,0 0.186102,-0.11304 0.239124,-0.25121 z m 17.56681,-0.10531 c 0,-0.41706 -0.399896,-0.35811 -0.483161,0.0712 -0.03275,0.16887 0.05455,0.2853 0.213915,0.2853 0.158748,0 0.269246,-0.14631 0.269246,-0.35652 z m -11.636974,-0.91687 c 0,-0.0415 -0.07701,-0.12306 -0.171132,-0.18123 -0.09412,-0.0582 -0.171132,-0.0242 -0.171132,0.0755 0,0.0997 0.07701,0.18123 0.171132,0.18123 0.09412,0 0.171132,-0.034 0.171132,-0.0755 z m 1.882451,-3.60387 c 0,-0.14118 -0.115514,-0.2567 -0.256697,-0.2567 -0.141184,0 -0.256698,0.11552 -0.256698,0.2567 0,0.14119 0.115514,0.2567 0.256698,0.2567 0.141183,0 0.256697,-0.11551 0.256697,-0.2567 z m -2.566979,-0.68453 c 0,-0.14118 -0.115514,-0.25669 -0.256698,-0.25669 -0.267235,0 -0.339521,0.20239 -0.142609,0.3993 0.196909,0.19691 0.399307,0.12463 0.399307,-0.14261 z m 5.094741,-0.0535 c 0.03784,-0.11352 -0.08963,-0.20322 -0.288785,-0.20322 -0.355496,0 -0.462045,0.1797 -0.238872,0.40287 0.158549,0.15855 0.444297,0.0504 0.527657,-0.19965 z m 2.092802,0.0535 c 0,-0.14118 -0.115514,-0.25669 -0.256698,-0.25669 -0.141184,0 -0.256698,0.11551 -0.256698,0.25669 0,0.14119 0.115514,0.2567 0.256698,0.2567 0.141184,0 0.256698,-0.11551 0.256698,-0.2567 z m -42.634458,14.57264 c -3.108099,-1.03988 -4.774453,-3.5199 -4.766568,-7.09404 0.007,-3.15371 1.417151,-5.53353 4.034012,-6.80773 0.869128,-0.42319 1.257289,-0.50136 2.751909,-0.55417 1.533212,-0.0542 1.896063,-0.008 3.052413,0.39149 1.465895,0.50596 1.929916,0.50705 2.206463,0.005 0.251068,-0.45561 0.451359,-0.5859 0.733967,-0.47745 0.185545,0.0712 0.224279,0.57354 0.186651,2.42067 -0.04204,2.06365 -0.08188,2.33743 -0.347611,2.38841 -0.2159,0.0414 -0.391492,-0.15556 -0.625671,-0.70187 -0.592116,-1.38135 -2.287916,-2.76732 -3.908677,-3.19454 -1.978968,-0.52164 -3.634516,1.15338 -4.168033,4.21707 -0.223561,1.28378 -0.114146,4.74493 0.181187,5.73154 0.279009,0.93207 1.208787,2.21846 1.890479,2.61556 0.460232,0.26809 0.879246,0.34498 1.809079,0.33196 1.709092,-0.0239 2.900914,-0.50242 4.587342,-1.8417 0.560514,-0.44514 1.133386,-0.51981 1.133386,-0.14774 0,0.29995 -0.93913,1.2584 -1.778618,1.81521 -1.92627,1.27766 -4.755176,1.64371 -6.97171,0.90212 z m -0.270524,-1.18156 c -1.033474,-1.12799 -1.583231,-3.17975 -1.586801,-5.92213 -0.0028,-2.15344 0.259501,-3.46315 1.007452,-5.03032 0.258299,-0.5412 0.425505,-0.98372 0.371571,-0.98336 -0.05393,3.5e-4 -0.329091,0.14205 -0.611459,0.31489 -0.884438,0.54137 -1.835119,1.61566 -2.295277,2.59371 -0.403645,0.85793 -0.442425,1.13053 -0.438213,3.08037 0.0042,1.93467 0.04685,2.23 0.446332,3.08955 0.573502,1.23397 1.365104,2.12132 2.44497,2.7407 1.047722,0.60095 1.116266,0.61303 0.661425,0.11659 z m 7.621561,-11.48526 c -0.03384,-0.14269 -0.172197,-0.19149 -0.356198,-0.12562 -0.286294,0.10249 -0.286423,0.1283 -0.0027,0.53281 0.253766,0.36175 0.306851,0.38047 0.356199,0.12562 0.03189,-0.16471 0.03309,-0.40447 0.0027,-0.53281 z m 47.8353945,12.37388 c -1.3537223,-0.67009 -2.0937757,-2.21332 -2.1054127,-4.3904 -0.00921,-1.72443 0.4007312,-2.94068 1.3049686,-3.87164 2.3016651,-2.36968 5.759852,-1.7003 6.6220936,1.28179 0.1538682,0.53216 0.2797614,1.05197 0.2797614,1.15514 0,0.12963 -1.0345783,0.18758 -3.348606,0.18758 -3.1065689,0 -3.3426266,0.0216 -3.2658928,0.29948 0.045492,0.16471 0.1345491,0.68453 0.1979022,1.15514 0.145149,1.07822 0.6264748,1.94914 1.3519391,2.44624 1.471367,1.00819 2.9782662,0.77854 4.2622711,-0.64958 0.4230074,-0.47049 0.8536028,-0.85543 0.95687752,-0.85543 0.25327702,0 0.24278663,0.0578 -0.16966882,0.93528 -0.4122244,0.87697 -1.6235324,2.06071 -2.4710737,2.41484 -0.8879833,0.37102 -2.7599771,0.31487 -3.6151595,-0.10844 z m 3.7055633,-6.84227 c 0,-0.49224 -0.6158783,-1.64154 -0.9479325,-1.76896 -0.513324,-0.19699 -1.881726,-0.10908 -2.2431876,0.1441 -0.3855808,0.27007 -0.9160471,1.2547 -0.9160471,1.70032 0,0.23554 0.2858246,0.27362 2.0535836,0.27362 1.9528639,0 2.0535836,-0.0171 2.0535836,-0.34908 z m 40.0448812,6.92224 c -0.862945,-0.37274 -1.860605,-1.39241 -2.329065,-2.38043 -0.553609,-1.1676 -0.581938,-3.48972 -0.05664,-4.64282 0.44144,-0.96902 1.384686,-1.89778 2.385706,-2.34906 1.04576,-0.47145 2.872994,-0.46449 3.946864,0.015 0.970777,0.43349 2.101694,1.69362 2.457733,2.73853 0.835558,2.45223 -0.332209,5.47299 -2.52637,6.53517 -0.901818,0.43656 -2.95843,0.48088 -3.878227,0.0836 z m 3.675134,-0.99516 c 0.302284,-0.32052 0.649085,-0.93805 0.770667,-1.3723 0.277296,-0.99041 0.153273,-3.70572 -0.208298,-4.56041 -0.379098,-0.89613 -1.258994,-1.8206 -1.94979,-2.04859 -0.90101,-0.29736 -1.989132,0.16142 -2.596139,1.0946 -0.427847,0.65774 -0.460277,0.83511 -0.442666,2.42106 0.02302,2.07283 0.465319,3.42472 1.441738,4.40664 0.575783,0.57904 0.725933,0.64175 1.536513,0.64175 0.800261,0 0.958389,-0.0636 1.447975,-0.58275 z m 13.080969,1.04792 c -0.683464,-0.52475 -0.753645,-0.95319 -0.812054,-4.95738 l -0.05679,-3.89326 h -0.584956 c -0.321725,0 -0.584955,-0.0705 -0.584955,-0.15675 0,-0.0862 0.307184,-0.40004 0.682632,-0.6974 0.375446,-0.29736 1.002679,-0.99692 1.393851,-1.55457 0.39117,-0.55766 0.777071,-1.01392 0.857556,-1.01392 0.08049,0 0.146337,0.61608 0.146337,1.36906 v 1.36906 h 1.112358 c 0.998269,0 1.112357,0.0351 1.112357,0.34226 0,0.30754 -0.114088,0.34226 -1.124532,0.34226 h -1.124532 l 0.05496,3.65346 c 0.04183,2.78073 0.111063,3.72096 0.289826,3.93604 0.343683,0.41349 1.303724,0.36182 1.727427,-0.093 0.244528,-0.26247 0.40402,-0.3214 0.529703,-0.19572 0.225884,0.22588 -0.5233,1.15815 -1.220395,1.51864 -0.583949,0.30197 -2.02176,0.32067 -2.398791,0.0312 z m 6.003975,-0.44502 c -0.782438,-0.82251 -0.855186,-1.26801 -0.855186,-5.23704 0,-2.63515 -0.03287,-2.97415 -0.312956,-3.22762 -0.172126,-0.15577 -0.480164,-0.28322 -0.684528,-0.28322 -0.204364,0 -0.371572,-0.077 -0.371572,-0.17113 0,-0.10208 0.656006,-0.17113 1.625754,-0.17113 h 1.625754 v 3.5137 c 0,3.87905 0.132844,4.56442 0.944535,4.87302 0.674904,0.2566 1.737303,0.0175 2.313386,-0.52065 l 0.506982,-0.47359 v -3.17062 c 0,-3.47107 -0.02799,-3.57466 -1.025031,-3.79365 -1.034648,-0.22724 -0.473267,-0.42821 1.196163,-0.42821 h 1.71132 v 4.00064 c 0,4.25166 0.0077,4.29203 0.842255,4.41121 0.84908,0.12125 0.5165,0.44988 -0.90326,0.89254 -0.794046,0.24757 -1.490202,0.45013 -1.547016,0.45013 -0.05681,0 -0.103299,-0.38902 -0.103299,-0.86448 v -0.86448 l -0.385047,0.41386 c -0.897106,0.96424 -1.652471,1.3151 -2.831272,1.3151 -1.072551,0 -1.139022,-0.0253 -1.746982,-0.66438 z m 20.397663,0.31773 c -0.926803,-0.56506 -1.059155,-1.13528 -1.060231,-4.5679 -0.0012,-3.59056 -0.138193,-4.29451 -0.86447,-4.43977 -1.014633,-0.20292 -0.461488,-0.4002 1.122122,-0.4002 h 1.625754 v 3.72682 c 0,4.0389 0.05888,4.32317 0.966923,4.66841 0.571569,0.21731 1.703749,-0.0579 2.215303,-0.53846 0.40693,-0.38229 0.411545,-0.42349 0.411545,-3.67292 0,-3.57761 3.58e-4,-3.57626 -1.000319,-3.7764 -1.066402,-0.21328 -0.508142,-0.40745 1.171451,-0.40745 h 1.71132 l 0.01706,3.72212 c 0.0094,2.04716 0.07017,3.91464 0.135074,4.14995 0.08973,0.32527 0.249721,0.44068 0.66747,0.48145 0.978865,0.0955 0.617256,0.48386 -0.887436,0.953 -0.790292,0.2464 -1.483377,0.448 -1.540191,0.448 -0.05681,0 -0.103299,-0.36095 -0.103299,-0.80211 v -0.80211 l -0.470612,0.44239 c -1.286177,1.20907 -2.935744,1.53565 -4.117466,0.81518 z m 10.793218,0.17078 c -0.210895,-0.0848 -0.71602,-0.48676 -1.122501,-0.89324 -0.923084,-0.92308 -1.23571,-1.92352 -1.222064,-3.91076 0.0085,-1.24175 0.08285,-1.62034 0.475711,-2.42332 0.256082,-0.52341 0.766759,-1.22374 1.134838,-1.55627 0.648561,-0.58594 2.032144,-1.13733 2.853856,-1.13733 0.599433,0 1.986521,0.50924 2.384473,0.87541 0.49253,0.45319 1.058668,1.63795 1.197462,2.50591 l 0.116068,0.72585 H 92.96924 89.672299 l 0.112106,0.95385 c 0.312429,2.65828 1.929625,4.02152 4.030552,3.39761 0.743866,-0.2209 2.236347,-1.43436 2.236347,-1.81825 0,-0.0756 0.115514,-0.13736 0.256698,-0.13736 0.340849,0 0.32371,0.22454 -0.0771,1.0102 -0.463651,0.90883 -1.432695,1.86302 -2.284988,2.24995 -0.77419,0.35148 -2.789677,0.44238 -3.497573,0.15775 z m 3.386992,-7.22962 c -0.289319,-1.2828 -0.73704,-1.66451 -1.952378,-1.66451 -0.851489,0 -1.714983,0.56394 -1.911265,1.24823 -0.305188,1.06396 -0.471556,0.97649 1.85733,0.97649 h 2.13266 z m 3.756162,5.69822 c 0,-1.92394 0.212652,-2.19939 0.655449,-0.84902 0.358024,1.09185 0.8032,1.64717 1.506533,1.8793 0.839866,0.27718 1.952696,0.10609 2.328486,-0.35798 0.70253,-0.86759 0.15298,-2.07734 -1.26969,-2.79501 -1.374777,-0.69352 -2.627472,-1.67985 -2.966736,-2.33591 -0.352467,-0.6816 -0.318976,-1.8543 0.07123,-2.49421 0.687603,-1.12761 2.097106,-1.58935 3.631596,-1.18966 0.5241,0.13651 1.11886,0.2048 1.3217,0.15176 0.35656,-0.0933 0.36879,-0.0476 0.36879,1.37814 0,0.89888 -0.0689,1.47458 -0.1765,1.47458 -0.0971,0 -0.21913,-0.13477 -0.27121,-0.29948 -0.51388,-1.62505 -1.15111,-2.2675 -2.24905,-2.2675 -1.266795,0 -1.998081,1.21161 -1.317636,2.18308 0.14515,0.20723 1.001096,0.8167 1.902096,1.35437 2.53064,1.51017 2.92774,2.02787 2.75192,3.58772 -0.0606,0.53784 -0.23619,0.92975 -0.57728,1.28858 -0.87572,0.92128 -1.31821,1.05569 -3.04806,0.9259 -0.852106,-0.0639 -1.664796,-0.12339 -1.80598,-0.13212 -0.141184,-0.009 -0.391464,0.042 -0.556179,0.11273 -0.274042,0.11769 -0.299481,-0.0195 -0.299481,-1.61527 z m -98.0586187,1.38405 c 0,-0.0836 0.26859676,-0.20248 0.59688264,-0.26406 0.32828417,-0.0616 0.67482641,-0.25762 0.77009387,-0.43563 0.10072659,-0.18821 0.17321119,-1.79393 0.17321119,-3.83708 0,-3.36085 -0.015162,-3.52155 -0.34898597,-3.70021 -0.19194162,-0.10272 -0.49647952,-0.16319 -0.67674994,-0.13437 -0.18027041,0.0288 -0.33945053,-0.0246 -0.35373491,-0.11873 -0.0142895,-0.0941 0.67982004,-0.41593 1.54245352,-0.71513 1.677285,-0.58176 1.6678693,-0.58407 1.7556566,0.42966 l 0.049378,0.57019 0.6845279,-0.48561 c 1.0897974,-0.77312 1.6278689,-0.99703 2.3958475,-0.99703 0.9097136,0 1.541817,0.33718 1.9892346,1.06112 l 0.3517823,0.56919 0.5208796,-0.43829 c 1.3902958,-1.16985 3.2364738,-1.53692 4.1839328,-0.83187 1.061954,0.79025 1.160269,1.18463 1.254072,5.0305 0.04706,1.92952 0.146025,3.60149 0.219918,3.7155 0.07389,0.114 0.401183,0.25734 0.727311,0.31852 1.263753,0.23708 0.489797,0.41542 -1.802889,0.41542 -1.522101,0 -2.395848,-0.064 -2.395848,-0.17541 0,-0.0965 0.233763,-0.22217 0.519475,-0.27931 0.28571,-0.0571 0.593747,-0.24268 0.684528,-0.4123 0.09078,-0.16962 0.163918,-1.71889 0.162531,-3.44282 -0.0028,-3.4198 -0.09139,-3.82516 -0.923718,-4.22424 -0.625035,-0.29969 -1.6849382,-0.0203 -2.3680508,0.62426 l -0.4706129,0.44404 v 3.14518 c 0,1.79469 0.074374,3.28414 0.1732112,3.46882 0.095268,0.17801 0.4418097,0.37404 0.7700939,0.43563 1.2812706,0.24036 0.4852446,0.41615 -1.884531,0.41615 -2.3375788,0 -3.0774131,-0.15558 -2.0117572,-0.42304 0.8951485,-0.22467 0.8993994,-0.24253 0.8993994,-3.77951 0,-1.81774 -0.07053,-3.49049 -0.1567346,-3.71723 -0.086206,-0.22673 -0.3914558,-0.50947 -0.6783363,-0.62829 -0.4357619,-0.1805 -0.6546945,-0.17071 -1.3303611,0.0595 -0.4448182,0.15157 -0.9866717,0.44271 -1.2041171,0.64699 -0.3852574,0.36193 -0.3953542,0.45181 -0.3953542,3.51878 0,1.75338 0.075165,3.28781 0.1697082,3.46447 0.093341,0.1744 0.401378,0.36798 0.6845278,0.43017 1.1562925,0.25397 0.3910486,0.42815 -1.8810278,0.42815 -1.31771619,0 -2.3958476,-0.0684 -2.3958476,-0.15209 z m 22.2471557,-0.0827 c 0,-0.14132 0.270421,-0.27807 0.679127,-0.34342 0.416014,-0.0665 0.747522,-0.23639 0.85566,-0.43845 0.237829,-0.44439 0.240244,-11.55053 0.0026,-11.99455 -0.09566,-0.17874 -0.480704,-0.4169 -0.855659,-0.52924 -0.374947,-0.11233 -0.681729,-0.30757 -0.681729,-0.43386 0,-0.335 5.875132,-0.32151 7.475835,0.0172 2.599374,0.54997 3.818875,1.72766 3.818875,3.68795 0,2.66074 -1.997741,4.10253 -5.690138,4.10663 l -1.668536,0.002 0.001,2.01081 c 0.0013,2.99701 0.270068,3.63655 1.52791,3.63655 0.352265,0 0.524646,0.0843 0.524646,0.2567 0,0.21839 -0.446844,0.2567 -2.994809,0.2567 -2.42399,0 -2.99481,-0.0448 -2.99481,-0.23483 z m 7.56583,-7.33579 c 1.902358,-1.06918 1.775904,-4.23963 -0.207978,-5.21445 -0.977718,-0.48041 -3.149679,-0.55989 -3.317941,-0.1214 -0.05713,0.14888 -0.103875,1.49013 -0.103875,2.98055 0,2.00177 0.05589,2.73534 0.213915,2.80739 0.494162,0.22533 2.739261,-0.0718 3.415879,-0.45209 z m 14.375177,7.37671 c 0.03555,-0.10665 0.326328,-0.27992 0.646175,-0.38505 0.804301,-0.26436 0.895979,-0.75379 0.828498,-4.42311 -0.06122,-3.32878 -0.107839,-3.47699 -1.040175,-3.30676 -0.322019,0.0588 -0.470612,0.0135 -0.470612,-0.14339 0,-0.13082 0.496183,-0.3955 1.15514,-0.61619 0.635328,-0.21278 1.357154,-0.48963 1.604058,-0.61523 0.579501,-0.2948 0.663441,-0.19023 0.663441,0.82643 v 0.84026 l 0.470613,-0.56931 c 0.997304,-1.20645 1.731409,-1.53299 2.556905,-1.13734 0.656993,0.31488 0.879201,1.01064 0.505113,1.58156 -0.35056,0.53503 -0.923991,0.57217 -1.525744,0.0988 -0.607431,-0.4778 -0.866044,-0.43177 -1.475764,0.26266 l -0.531123,0.60491 v 3.0622 c 0,3.39496 0.02251,3.46986 1.10396,3.67274 0.334048,0.0627 0.60736,0.18746 0.60736,0.27732 0,0.0965 -1.056179,0.16338 -2.58124,0.16338 -1.846901,0 -2.562852,-0.0552 -2.516605,-0.19391 z m 45.34238,-10.74184 c 0.03137,-0.0849 0.596109,-0.88815 1.254967,-1.78492 l 1.197924,-1.6305 0.770094,-0.002 c 0.769579,-0.002 0.770871,-10e-4 1.931389,1.53027 1.372938,1.81159 1.486666,2.04164 1.009293,2.04164 -0.280064,0 -1.126464,-0.55298 -1.571626,-1.02679 -0.292749,-0.31159 -1.248706,-1.02679 -1.372438,-1.02679 -0.08154,0 -0.683776,0.46205 -1.338305,1.02679 -0.671046,0.57899 -1.353226,1.02679 -1.564197,1.02679 -0.205779,0 -0.348476,-0.0695 -0.317101,-0.15443 z"
         id="path892"
         inkscape:connector-curvature="0" />
      <path
         style="fill:#000000;stroke-width:0.17113197"
         d="m 69.451285,279.12617 c -0.799234,-0.20082 -1.778037,-0.90653 -1.967427,-1.4185 -0.231045,-0.62457 0.113465,-1.36227 1.03836,-2.22343 0.925229,-0.86148 0.924623,-0.85385 0.105188,-1.32289 -0.565009,-0.32341 -0.36117,-1.02738 0.570713,-1.97099 l 0.870196,-0.88114 -0.870196,-0.87019 c -0.90149,-0.90149 -0.981563,-1.13867 -0.877044,-2.59781 0.07568,-1.05649 0.821618,-2.03405 2.009152,-2.63301 0.704333,-0.35525 2.218417,-0.35455 3.067976,10e-4 0.364453,0.15271 1.301872,0.31782 2.083153,0.36693 1.323372,0.0832 1.41699,0.11393 1.369056,0.44967 -0.04234,0.29655 -0.188555,0.36934 -0.825542,0.41095 l -0.774087,0.0506 0.004,1.5154 c 0.0038,1.43407 -0.02379,1.54979 -0.513689,2.15613 -0.782027,0.9679 -1.489457,1.27572 -2.931901,1.27572 -1.145561,0 -1.266445,0.0362 -1.756773,0.52656 -0.289606,0.28961 -0.526559,0.62861 -0.526559,0.75335 0,0.35201 0.863606,0.5717 2.690157,0.68435 2.832602,0.1747 3.070349,0.22875 3.726024,0.84713 0.530144,0.5 0.60023,0.66564 0.60023,1.41866 0,1.23247 -0.622174,2.02101 -2.242334,2.84192 -1.097117,0.55589 -1.459788,0.65119 -2.720493,0.71492 -0.800042,0.0404 -1.757709,-0.003 -2.128148,-0.0957 z m 5.385907,-1.54379 c 0.951998,-0.52543 1.329739,-1.15031 1.096952,-1.81466 -0.194147,-0.55407 -0.449974,-0.61192 -3.926881,-0.88795 l -2.053584,-0.16303 -0.553633,0.62662 c -0.756957,0.85676 -0.757806,1.57155 -0.0025,2.14067 0.757253,0.57062 0.983002,0.61323 2.964719,0.55953 1.448738,-0.0393 1.84392,-0.11289 2.474972,-0.46118 z m -1.533487,-7.10337 c 0.362174,-0.38636 0.413645,-0.59908 0.405184,-1.6745 -0.02108,-2.67955 -1.770629,-4.25769 -3.169412,-2.85891 -0.459068,0.45907 -0.500232,0.60035 -0.500232,1.71682 0,2.07374 0.77212,3.24084 2.152103,3.25302 0.534005,0.005 0.794718,-0.0976 1.112357,-0.43643 z m -116.981654,7.68195 c -1.258659,-0.50161 -2.964475,-2.05671 -3.252918,-2.96551 -0.05528,-0.17417 -0.385615,-0.40918 -0.734077,-0.52223 -1.015631,-0.32951 -2.373292,-1.31762 -3.018975,-2.19722 -1.044451,-1.42282 -1.330198,-2.29234 -1.424235,-4.33386 -0.07344,-1.59446 -0.03268,-1.99992 0.30736,-3.05746 0.636918,-1.98082 2.112007,-3.54354 4.059874,-4.30107 1.049292,-0.40807 3.455731,-0.57574 4.634606,-0.32292 1.314013,0.28181 2.711234,1.01917 3.634908,1.91827 3.6964,3.59805 2.084044,11.07315 -2.66226,12.34259 -0.425804,0.11389 -0.774189,0.26542 -0.774189,0.33675 0,0.30743 1.101569,1.34518 1.77287,1.67015 0.546444,0.26453 1.066264,0.35389 2.058612,0.35389 1.154554,0 1.320311,0.0377 1.271848,0.28937 -0.03333,0.17307 -0.46571,0.44816 -1.075921,0.68452 -1.260091,0.48809 -3.701807,0.54139 -4.797503,0.10473 z m 1.966459,-0.95027 c -0.510205,-0.3059 -1.161379,-0.87876 -1.447053,-1.27303 l -0.519406,-0.71685 -1.250807,-0.0105 c -1.35719,-0.0113 -1.359878,-0.007 -0.552907,0.90861 0.942968,1.06984 2.179918,1.60629 3.764161,1.63248 l 0.933656,0.0154 -0.927644,-0.55618 z m -1.385836,-3.26184 c 1.543535,-1.02146 2.322234,-4.26778 1.917074,-7.99208 -0.370321,-3.40405 -1.530817,-4.96083 -3.698032,-4.96083 -0.674563,0 -1.048406,0.10678 -1.538704,0.43951 -0.92108,0.62506 -1.199829,1.02715 -1.652794,2.38417 -0.357256,1.07028 -0.398572,1.49879 -0.387746,4.0216 0.0133,3.09886 0.25487,4.18534 1.208623,5.43578 0.969581,1.27118 2.798642,1.56718 4.151579,0.67185 z m -5.27365,-1.24503 c -0.649643,-1.3122 -0.868762,-2.58181 -0.868762,-5.03374 0,-2.46793 0.22568,-3.75354 0.868803,-4.94922 0.274417,-0.51019 0.467886,-0.95867 0.429934,-0.99663 -0.143335,-0.14333 -1.143615,0.49916 -1.783747,1.14572 -1.275398,1.28821 -1.817363,2.98981 -1.70611,5.35664 0.08038,1.70993 0.539395,2.98509 1.474645,4.09657 0.428935,0.50976 1.91182,1.5673 2.030816,1.4483 0.03053,-0.0305 -0.169982,-0.51096 -0.445579,-1.06764 z m 7.525983,0.64403 c 1.977642,-1.25546 2.979278,-3.91272 2.580292,-6.84532 -0.20327,-1.49407 -0.581304,-2.37064 -1.464763,-3.39646 -0.59798,-0.69434 -2.151599,-1.72233 -2.151599,-1.42366 0,0.0819 0.08338,0.20052 0.185294,0.26351 0.101913,0.063 0.329472,0.45087 0.505689,0.86196 1.194413,2.78646 1.113174,7.75272 -0.165442,10.11343 -0.270942,0.50024 -0.438096,0.90953 -0.371454,0.90953 0.06664,0 0.463535,-0.21735 0.881983,-0.48299 z m 12.768576,4.98946 c -0.206132,-0.20613 -0.119238,-0.86652 0.142609,-1.08383 0.141184,-0.11718 0.256698,-0.44281 0.256698,-0.72364 0,-0.3092 0.202506,-0.76629 0.513396,-1.15882 0.493678,-0.62332 0.697426,-1.54018 0.342264,-1.54018 -0.09412,0 -0.171132,-0.15402 -0.171132,-0.34227 0,-0.27707 -0.114089,-0.34226 -0.598962,-0.34226 -0.551425,0 -0.598962,-0.0408 -0.598962,-0.5134 0,-0.39931 -0.07606,-0.51339 -0.342264,-0.51339 -0.188245,0 -0.342264,-0.077 -0.342264,-0.17114 0,-0.29165 -0.912694,-0.18724 -1.501541,0.17178 -0.308172,0.18789 -0.841175,0.34162 -1.184449,0.34162 -0.343273,0 -0.758557,0.12165 -0.922853,0.27034 -0.23502,0.21269 -0.374741,0.22965 -0.65522,0.0795 -0.469861,-0.25146 -0.468742,-0.9623 0.0019,-1.21418 0.293906,-0.15729 0.426786,-0.12758 0.738341,0.16511 0.483507,0.45423 1.412884,0.4611 1.983624,0.0147 0.235307,-0.18406 0.678111,-0.33636 0.984009,-0.33846 0.305892,-0.002 0.556172,-0.0808 0.556172,-0.17493 0,-0.0941 0.154019,-0.17114 0.342264,-0.17114 0.250994,0 0.342264,-0.11408 0.342264,-0.42783 0,-0.31374 -0.09127,-0.42783 -0.342264,-0.42783 -0.188245,0 -0.342264,-0.077 -0.342264,-0.17113 0,-0.28287 -1.810415,-0.20743 -2.053583,0.0856 -0.517649,0.62373 -1.413258,-0.048 -1.026792,-0.7701 0.261948,-0.48945 1.197924,-0.40829 1.197924,0.10388 0,0.35139 1.809005,0.33436 1.944338,-0.0183 0.05418,-0.14118 0.216434,-0.2567 0.360573,-0.2567 0.14798,0 0.262068,-0.149 0.262068,-0.34226 0,-0.22818 -0.114088,-0.34227 -0.342264,-0.34227 -0.188245,0 -0.342264,-0.077 -0.342264,-0.17113 0,-0.10268 -0.684528,-0.17113 -1.711319,-0.17113 -1.094769,0 -1.71132,0.0656 -1.71132,0.18198 0,0.10221 -0.243767,0.15847 -0.556179,0.12834 -0.459625,-0.0443 -0.565386,-0.13332 -0.609218,-0.51272 -0.07956,-0.68868 0.54809,-0.98167 1.064224,-0.49679 0.328207,0.30833 0.593935,0.35693 1.951871,0.35693 0.933872,0 1.571941,-0.0695 1.571941,-0.17114 0,-0.0941 0.154019,-0.17113 0.342264,-0.17113 0.228176,0 0.342264,-0.11409 0.342264,-0.34226 0,-0.22818 -0.114088,-0.34227 -0.342264,-0.34227 -0.188245,0 -0.342264,-0.077 -0.342264,-0.17113 0,-0.0941 -0.122878,-0.17113 -0.273063,-0.17113 -0.150185,0 -0.499534,-0.16126 -0.776333,-0.35836 -0.500715,-0.35654 -0.706265,-0.36662 -2.521957,-0.12371 -0.523619,0.0701 -0.871156,-0.41647 -0.603028,-0.8442 0.276678,-0.44137 0.867256,-0.46946 1.126959,-0.0536 0.15484,0.24794 0.399367,0.35295 0.821089,0.35261 0.330319,-2.5e-4 0.938235,0.17301 1.350927,0.38505 0.550743,0.28297 0.770773,0.32862 0.827137,0.17161 0.04224,-0.11766 0.224393,-0.21392 0.404794,-0.21392 0.248788,0 0.328003,-0.12137 0.328003,-0.50255 0,-0.4419 0.06713,-0.50903 0.556179,-0.55618 0.426281,-0.0411 0.568951,-0.14355 0.610864,-0.43867 0.03008,-0.21178 0.126338,-0.38505 0.213915,-0.38505 0.299259,0 0.160568,-0.97253 -0.183034,-1.28349 -0.239699,-0.21692 -0.342264,-0.52708 -0.342264,-1.035 0,-0.48681 -0.0844,-0.75765 -0.256698,-0.82377 -0.370424,-0.14215 -0.320099,-0.91893 0.07317,-1.1294 0.694514,-0.3717 1.324897,0.4208 0.797915,1.00311 -0.388129,0.42888 -0.349248,1.43439 0.07014,1.81393 0.212318,0.19214 0.342264,0.52708 0.342264,0.88218 0,0.31484 0.07701,0.57244 0.171132,0.57244 0.09412,0 0.171132,0.19252 0.171132,0.42783 0,0.31374 0.09127,0.42783 0.342264,0.42783 0.250994,0 0.342264,-0.11409 0.342264,-0.42783 0,-0.2662 0.09698,-0.42783 0.256698,-0.42783 0.417166,0 0.353356,-1.96228 -0.0818,-2.51549 -0.4498,-0.57183 -0.197308,-1.12381 0.478357,-1.04575 0.357645,0.0413 0.47109,0.15725 0.513346,0.52462 0.03538,0.30754 -0.03904,0.50738 -0.213915,0.57449 -0.207569,0.0796 -0.268158,0.36943 -0.268158,1.28252 0,0.64878 0.07165,1.17961 0.159229,1.17961 0.08758,0 0.183839,0.17327 0.213915,0.38505 0.07498,0.52796 0.718917,0.52796 0.793899,0 0.03008,-0.21178 0.126338,-0.38505 0.213915,-0.38505 0.08758,0 0.159229,-0.35365 0.159229,-0.78588 0,-0.52676 0.112853,-0.92936 0.342264,-1.22101 0.408609,-0.51946 0.4316,-0.83746 0.08557,-1.1835 -0.538489,-0.53849 -0.02925,-1.4237 0.665616,-1.15705 0.466366,0.17896 0.540363,1.26707 0.08617,1.26707 -0.08405,0 -0.152823,0.16112 -0.152823,0.35805 0,0.19693 -0.154019,0.55386 -0.342264,0.79317 -0.361581,0.45968 -0.491936,1.92915 -0.171132,1.92915 0.09412,0 0.171132,0.19252 0.171132,0.42783 0,0.31374 0.09127,0.42783 0.342264,0.42783 0.250994,0 0.342264,-0.11409 0.342264,-0.42783 0,-0.23531 0.07701,-0.42783 0.171132,-0.42783 0.09412,0 0.171132,-0.14294 0.171132,-0.31765 0,-0.17471 0.269533,-0.67065 0.598962,-1.10209 0.629339,-0.82422 0.774846,-1.55652 0.342264,-1.72252 -0.141184,-0.0542 -0.256698,-0.29074 -0.256698,-0.52568 0,-0.51331 0.478697,-0.82472 0.902861,-0.58734 0.362812,0.20304 0.389533,0.97826 0.03836,1.11302 -0.154519,0.0593 -0.256698,0.3175 -0.256698,0.64867 0,0.34528 -0.189419,0.80051 -0.508635,1.2224 -0.499897,0.66068 -0.672279,1.27119 -0.358927,1.27119 0.08758,0 0.183838,0.17327 0.213915,0.38505 0.04191,0.29512 0.184583,0.39757 0.610864,0.43867 0.489047,0.0471 0.556179,0.11428 0.556179,0.55618 0,0.38847 0.0777,0.50255 0.342264,0.50255 0.188245,0 0.342264,0.077 0.342264,0.17114 0,0.29514 0.789928,0.18652 1.24462,-0.17114 0.267781,-0.21063 0.694245,-0.34226 1.108913,-0.34226 0.456459,0 0.773705,-0.1104 0.98354,-0.34226 0.513789,-0.56774 1.28349,-0.33976 1.28349,0.38015 0,0.4132 -0.785332,0.78542 -1.065661,0.50509 -0.325476,-0.32548 -1.695105,-0.24013 -2.271413,0.14155 -0.282367,0.187 -0.686667,0.34051 -0.898443,0.34113 -0.211775,6.2e-4 -0.385046,0.0781 -0.385046,0.17226 0,0.0941 -0.154019,0.17113 -0.342264,0.17113 -0.228176,0 -0.342264,0.11409 -0.342264,0.34227 0,0.22817 0.114088,0.34226 0.342264,0.34226 0.188245,0 0.342264,0.077 0.342264,0.17113 0,0.10208 0.656005,0.17114 1.625753,0.17114 0.930224,0 1.625754,-0.0706 1.625754,-0.16511 0,-0.0908 0.163402,-0.25256 0.363113,-0.35945 0.298557,-0.15978 0.423444,-0.134 0.702445,0.145 0.482202,0.4822 0.273057,1.06408 -0.382463,1.06408 -0.27047,0 -0.539358,-0.077 -0.597529,-0.17113 -0.13996,-0.22646 -3.337073,-0.22646 -3.337073,0 0,0.0941 -0.154019,0.17113 -0.342264,0.17113 -0.228176,0 -0.342264,0.11409 -0.342264,0.34227 0,0.19326 0.114088,0.34226 0.262068,0.34226 0.144139,0 0.306396,0.11552 0.360573,0.2567 0.136267,0.35511 1.744047,0.36068 1.879953,0.007 0.119235,-0.31073 0.608629,-0.47744 0.981502,-0.33435 0.347526,0.13335 0.367653,0.81281 0.03232,1.09111 -0.264122,0.2192 -0.949439,0.0923 -0.949439,-0.17585 0,-0.0878 -0.423551,-0.1596 -0.941226,-0.1596 -0.517674,0 -0.941225,0.077 -0.941225,0.17113 0,0.0941 -0.154019,0.17113 -0.342264,0.17113 -0.250995,0 -0.342264,0.11409 -0.342264,0.42783 0,0.31375 0.09127,0.42783 0.342264,0.42783 0.188245,0 0.342264,0.077 0.342264,0.17114 0,0.0941 0.296102,0.17113 0.658004,0.17113 0.440668,0 0.760312,0.11305 0.967749,0.34226 0.323611,0.35759 1.625754,0.49948 1.625754,0.17716 0,-0.0908 0.160424,-0.25097 0.3565,-0.35591 0.284405,-0.15221 0.422837,-0.13076 0.684528,0.10607 0.416585,0.377 0.414153,0.62622 -0.0099,1.00994 -0.314861,0.28494 -0.366914,0.28675 -0.764072,0.0265 -0.234403,-0.15359 -0.698432,-0.27925 -1.031173,-0.27925 -0.376806,0 -0.73407,-0.12909 -0.947246,-0.34226 -0.671162,-0.67117 -2.220998,-0.28348 -2.223381,0.55618 -0.0012,0.4235 -0.0613,0.47061 -0.600296,0.47061 -0.484874,0 -0.598962,0.0652 -0.598962,0.34226 0,0.18825 -0.07701,0.34227 -0.171132,0.34227 -0.30218,0 -0.182572,1.04382 0.171132,1.49349 0.196305,0.24956 0.342264,0.69424 0.342264,1.04275 0,0.3794 0.13336,0.74959 0.355047,0.98557 0.308289,0.32816 0.325404,0.42539 0.129966,0.73834 -0.288706,0.46229 -0.930701,0.46442 -1.17716,0.004 -0.150108,-0.28048 -0.133146,-0.4202 0.07955,-0.65522 0.394111,-0.43548 0.351893,-1.59953 -0.07193,-1.98308 -0.229216,-0.20744 -0.342264,-0.52708 -0.342264,-0.96775 0,-0.3619 -0.07701,-0.658 -0.171132,-0.658 -0.09412,0 -0.171132,-0.15402 -0.171132,-0.34227 0,-0.22817 -0.114089,-0.34226 -0.342264,-0.34226 -0.228175,0 -0.342264,0.11409 -0.342264,0.34226 0,0.18825 -0.07701,0.34227 -0.171132,0.34227 -0.289227,0 -0.20766,2.35214 0.09773,2.81822 0.477483,0.72873 -0.315594,1.51602 -0.919162,0.91245 -0.281278,-0.28127 -0.257756,-0.73604 0.05134,-0.99256 0.298908,-0.24807 0.376722,-2.73811 0.08557,-2.73811 -0.09412,0 -0.171132,-0.15402 -0.171132,-0.34227 0,-0.25099 -0.114088,-0.34226 -0.42783,-0.34226 -0.313741,0 -0.42783,0.0913 -0.42783,0.34226 0,0.18825 -0.07701,0.34227 -0.171131,0.34227 -0.09412,0 -0.172846,0.4043 -0.174938,0.89844 -0.0027,0.6273 -0.1048,1.02756 -0.338458,1.32627 -0.410033,0.5242 -0.425953,0.8218 -0.06528,1.22034 0.400957,0.44305 0.186081,1.17551 -0.344853,1.17551 -0.221987,0 -0.506123,-0.12352 -0.631409,-0.27448 -0.19139,-0.23061 -0.181064,-0.35589 0.06461,-0.78396 0.160823,-0.28022 0.292407,-0.58434 0.292407,-0.67583 0,-0.0915 0.192523,-0.44966 0.42783,-0.79595 0.492334,-0.72454 0.588819,-1.86818 0.171132,-2.02846 -0.141184,-0.0542 -0.256698,-0.24428 -0.256698,-0.42246 0,-0.20986 -0.120537,-0.32395 -0.342264,-0.32395 -0.228176,0 -0.342264,0.11409 -0.342264,0.34226 0,0.18825 -0.07701,0.34227 -0.171132,0.34227 -0.09412,0 -0.171132,0.22043 -0.171132,0.48986 0,0.28665 -0.212982,0.75787 -0.513396,1.13589 -0.555539,0.69905 -0.636358,1.29614 -0.266004,1.9652 0.296724,0.53605 0.06587,1.02961 -0.48159,1.02961 -0.216307,0 -0.444626,-0.0513 -0.507373,-0.11409 z m 0.827137,-0.57044 c 0,-0.13861 -0.134766,-0.27796 -0.299481,-0.30968 -0.210124,-0.0405 -0.299481,0.0519 -0.299481,0.30968 0,0.25775 0.08936,0.35015 0.299481,0.30969 0.164715,-0.0317 0.299481,-0.17108 0.299481,-0.30969 z m 2.13915,-0.0125 c 0,-0.24491 -0.09216,-0.33707 -0.297517,-0.29752 -0.446095,0.0859 -0.495846,0.65233 -0.05729,0.65233 0.244906,0 0.354812,-0.10991 0.354812,-0.35482 z m 5.091225,0.0554 c 0.09357,-0.28102 -0.442629,-0.48163 -0.672613,-0.25164 -0.09842,0.0984 -0.124567,0.26693 -0.05811,0.37446 0.151203,0.24465 0.635467,0.16326 0.730719,-0.12282 z m -2.556446,-0.68266 c -0.08591,-0.44609 -0.652328,-0.49585 -0.652328,-0.0573 0,0.2449 0.109906,0.35481 0.354812,0.35481 0.244907,0 0.337065,-0.0922 0.297516,-0.29752 z m -3.732703,-3.80965 c 0,-0.0941 -0.07701,-0.17113 -0.171132,-0.17113 -0.09412,0 -0.171132,0.077 -0.171132,0.17113 0,0.0941 0.07701,0.17113 0.171132,0.17113 0.09412,0 0.171132,-0.077 0.171132,-0.17113 z m 1.71132,0 c 0,-0.0941 -0.07701,-0.17113 -0.171132,-0.17113 -0.09412,0 -0.171132,0.077 -0.171132,0.17113 0,0.0941 0.07701,0.17113 0.171132,0.17113 0.09412,0 0.171132,-0.077 0.171132,-0.17113 z m 1.882451,0 c 0,-0.0941 -0.07701,-0.17113 -0.171132,-0.17113 -0.09412,0 -0.171132,0.077 -0.171132,0.17113 0,0.0941 0.07701,0.17113 0.171132,0.17113 0.09412,0 0.171132,-0.077 0.171132,-0.17113 z m 1.796886,0 c -0.05817,-0.0941 -0.178231,-0.17113 -0.266798,-0.17113 -0.08857,0 -0.161032,0.077 -0.161032,0.17113 0,0.0941 0.120059,0.17113 0.266798,0.17113 0.146739,0 0.219203,-0.077 0.161032,-0.17113 z m 1.072787,-4.40665 -0.046,-3.89325 -3.978819,-0.0459 -3.978818,-0.0459 v 3.93918 3.93919 h 4.024814 4.024815 z m -6.97684,0.0428 c 0,-1.65427 0.0644,-2.65254 0.171132,-2.65254 0.106728,0 0.171132,0.99827 0.171132,2.65254 0,1.65428 -0.0644,2.65255 -0.171132,2.65255 -0.106728,0 -0.171132,-0.99827 -0.171132,-2.65255 z m 5.051271,1.90134 c 0.127538,-0.42377 0.321234,-0.93744 0.430433,-1.14148 0.236568,-0.44204 0.146565,-1.11181 -0.320326,-2.38378 -0.18965,-0.51667 -0.311111,-0.9731 -0.269916,-1.0143 0.139932,-0.13993 0.508445,0.51633 0.89469,1.5933 l 0.385067,1.07369 -0.479317,1.256 c -0.542988,1.42285 -1.022043,1.88391 -0.640631,0.61657 z m -2.795541,0.10408 c 0.06284,-0.42816 8.55e-4,-0.55928 -0.336834,-0.71317 -0.354033,-0.16131 -0.402932,-0.28066 -0.3384,-0.82597 0.04149,-0.35057 0.134638,-0.77217 0.207003,-0.93689 0.078,-0.17754 0.05913,-0.29948 -0.04634,-0.29948 -0.09785,0 -0.226793,0.15402 -0.28654,0.34226 -0.122266,0.38523 -0.42783,0.46529 -0.42783,0.11209 0,-0.35495 0.638695,-0.85082 0.944664,-0.73341 0.214556,0.0823 0.261642,0.31157 0.220289,1.07247 -0.08462,1.557 0.263229,1.24901 0.710687,-0.62927 0.225616,-0.94705 0.473464,-1.761 0.550775,-1.80878 0.07731,-0.0478 0.140564,-0.0468 0.140564,0.002 0,0.17505 -0.664187,2.93181 -0.777108,3.22545 -0.169631,0.4411 0.208468,0.37028 0.712129,-0.13338 0.338717,-0.33871 0.420771,-0.57134 0.377269,-1.06957 -0.04161,-0.47659 0.009,-0.63672 0.201106,-0.63672 0.191709,0 0.246225,0.17056 0.215332,0.67369 -0.04589,0.74744 -0.69587,1.57888 -1.365731,1.747 -0.266265,0.0668 -0.389789,0.22433 -0.389789,0.49701 0,0.21955 -0.08736,0.45317 -0.194123,0.51915 -0.134043,0.0828 -0.170292,-0.0424 -0.117126,-0.40464 z m -7.960556,1.40572 c 0.142631,-0.37169 -0.219467,-0.72124 -0.478648,-0.46206 -0.219056,0.21906 -0.08335,0.73026 0.193855,0.73026 0.10003,0 0.228187,-0.12069 0.284793,-0.2682 z m 18.026328,-0.16784 c 0,-0.346 -0.326147,-0.4749 -0.608569,-0.24051 -0.184785,0.15335 -0.202138,0.26782 -0.06556,0.43239 0.219501,0.26448 0.674127,0.13508 0.674127,-0.19188 z m -13.690558,-0.59075 c 0,-0.0941 -0.07701,-0.17113 -0.171132,-0.17113 -0.09412,0 -0.171132,0.077 -0.171132,0.17113 0,0.0941 0.07701,0.17113 0.171132,0.17113 0.09412,0 0.171132,-0.077 0.171132,-0.17113 z m 9.069995,0 c 0,-0.0941 -0.07701,-0.17113 -0.171132,-0.17113 -0.09412,0 -0.171132,0.077 -0.171132,0.17113 0,0.0941 0.07701,0.17113 0.171132,0.17113 0.09412,0 0.171132,-0.077 0.171132,-0.17113 z m -12.009474,-1.93942 c 0.03201,-0.16506 -0.05388,-0.2853 -0.203815,-0.2853 -0.317917,0 -0.509795,0.27897 -0.359329,0.52243 0.154796,0.25047 0.496485,0.10659 0.563144,-0.23713 z m 15.218248,0.0998 c 0.09357,-0.28102 -0.44263,-0.48162 -0.672614,-0.25164 -0.09842,0.0984 -0.124567,0.26693 -0.05811,0.37446 0.151203,0.24466 0.635468,0.16326 0.73072,-0.12282 z m -12.278769,-0.0429 c 0,-0.0941 -0.03396,-0.17113 -0.07547,-0.17113 -0.04151,0 -0.123061,0.077 -0.181232,0.17113 -0.05817,0.0941 -0.02421,0.17113 0.07547,0.17113 0.09968,0 0.181232,-0.077 0.181232,-0.17113 z m 9.069995,0.0957 c 0,-0.0415 -0.07701,-0.12306 -0.171132,-0.18123 -0.09412,-0.0582 -0.171132,-0.0242 -0.171132,0.0755 0,0.0997 0.07701,0.18123 0.171132,0.18123 0.09412,0 0.171132,-0.034 0.171132,-0.0755 z m -13.348294,-1.90076 c 0,-0.32153 -0.33765,-0.49268 -0.55103,-0.2793 -0.255556,0.25555 -0.03075,0.73084 0.287855,0.60858 0.144746,-0.0555 0.263175,-0.20372 0.263175,-0.32928 z m 17.968857,0 c 0,-0.346 -0.326147,-0.4749 -0.608569,-0.24051 -0.184785,0.15336 -0.202138,0.26782 -0.06556,0.43239 0.219501,0.26448 0.674127,0.13508 0.674127,-0.19188 z m -13.690558,0.0938 c 0,-0.0941 -0.07701,-0.17113 -0.171132,-0.17113 -0.09412,0 -0.171132,0.077 -0.171132,0.17113 0,0.0941 0.07701,0.17113 0.171132,0.17113 0.09412,0 0.171132,-0.077 0.171132,-0.17113 z m 9.069995,0 c 0,-0.0941 -0.07701,-0.17113 -0.171132,-0.17113 -0.09412,0 -0.171132,0.077 -0.171132,0.17113 0,0.0941 0.07701,0.17113 0.171132,0.17113 0.09412,0 0.171132,-0.077 0.171132,-0.17113 z m -9.069995,-1.80699 c 0,-0.14674 -0.07701,-0.2192 -0.171132,-0.16103 -0.09412,0.0582 -0.171132,0.17823 -0.171132,0.2668 0,0.0886 0.07701,0.16103 0.171132,0.16103 0.09412,0 0.171132,-0.12006 0.171132,-0.2668 z m 9.069995,0.10577 c 0,-0.0886 -0.07701,-0.20863 -0.171132,-0.2668 -0.09412,-0.0582 -0.171132,0.0143 -0.171132,0.16103 0,0.14674 0.07701,0.2668 0.171132,0.2668 0.09412,0 0.171132,-0.0725 0.171132,-0.16103 z m -13.091596,-0.8681 c 0,-0.36683 -0.497253,-0.31384 -0.569377,0.0607 -0.04404,0.2287 0.02566,0.2984 0.254355,0.25436 0.173261,-0.0334 0.315022,-0.17513 0.315022,-0.31502 z m 17.626593,0.002 c 0,-0.13861 -0.134767,-0.27797 -0.299481,-0.30969 -0.210125,-0.0405 -0.299481,0.0519 -0.299481,0.30969 0,0.25775 0.08936,0.35015 0.299481,0.30968 0.164714,-0.0317 0.299481,-0.17108 0.299481,-0.30968 z m -11.72254,-0.94123 c 0,-0.14118 -0.07701,-0.25669 -0.171132,-0.25669 -0.09412,0 -0.171132,0.11551 -0.171132,0.25669 0,0.14119 0.07701,0.2567 0.171132,0.2567 0.09412,0 0.171132,-0.11551 0.171132,-0.2567 z m 1.64358,-0.21035 c -0.173959,-0.17395 -0.317492,0.0879 -0.174763,0.31889 0.107818,0.17445 0.148128,0.17459 0.206094,6.8e-4 0.03963,-0.1189 0.02554,-0.26271 -0.03133,-0.31957 z m 1.950191,0.11469 c 0,-0.0886 -0.07701,-0.16103 -0.171132,-0.16103 -0.09412,0 -0.171132,0.12005 -0.171132,0.26679 0,0.14674 0.07701,0.21921 0.171132,0.16104 0.09412,-0.0582 0.171132,-0.17823 0.171132,-0.2668 z m 1.73699,0.0957 c 0,-0.0894 -0.08279,-0.19017 -0.183967,-0.22389 -0.101182,-0.0337 -0.183967,0.067 -0.183967,0.22389 0,0.15687 0.08279,0.25763 0.183967,0.2239 0.101182,-0.0337 0.183967,-0.13448 0.183967,-0.2239 z m -3.467153,-3.39993 c 0.148122,-0.17848 0.129698,-0.28752 -0.07765,-0.45961 -0.225308,-0.18699 -0.296208,-0.18621 -0.414109,0.005 -0.153957,0.24911 -0.04816,0.68904 0.165697,0.68904 0.07253,0 0.219258,-0.10529 0.326066,-0.23399 z m -2.453355,-0.80771 c 0.06324,-0.10232 0.03255,-0.26848 -0.06821,-0.36924 -0.213555,-0.21355 -0.769106,0.15184 -0.613546,0.40354 0.130254,0.21076 0.543144,0.18998 0.681759,-0.0343 z m 5.0066,-0.11344 c -0.03172,-0.16471 -0.171079,-0.29948 -0.309686,-0.29948 -0.138607,0 -0.277964,0.13477 -0.309685,0.29948 -0.04047,0.21013 0.05194,0.29948 0.309685,0.29948 0.257751,0 0.350152,-0.0893 0.309686,-0.29948 z m 2.21456,9e-5 c 0.09357,-0.28102 -0.442629,-0.48162 -0.672613,-0.25164 -0.09842,0.0984 -0.124567,0.26693 -0.05811,0.37446 0.151204,0.24466 0.635468,0.16326 0.73072,-0.12282 z m -42.312429,14.69331 c -2.712369,-0.78997 -4.345931,-2.49182 -4.952742,-5.15976 -0.867061,-3.81217 0.602422,-7.19568 3.80237,-8.75501 1.087475,-0.52993 1.254182,-0.56069 3.049017,-0.56264 1.188846,-10e-4 1.988556,0.072 2.139149,0.19609 0.317699,0.26177 2.039242,0.69287 2.432156,0.60905 0.170059,-0.0363 0.379929,-0.25199 0.466377,-0.47937 0.08645,-0.22738 0.274599,-0.41341 0.418112,-0.41341 0.220938,0 0.260934,0.35412 0.260934,2.31028 0,1.88912 -0.04461,2.31028 -0.244693,2.31028 -0.134581,0 -0.419854,-0.35072 -0.633941,-0.77939 -1.080239,-2.16297 -4.186739,-3.73541 -5.761229,-2.9162 -1.010912,0.52597 -1.911076,1.96387 -2.272628,3.63023 -0.285485,1.31578 -0.285058,4.51935 7.61e-4,5.71272 0.57142,2.38582 1.806419,3.59176 3.682926,3.59625 1.514131,0.004 3.152229,-0.58572 4.381629,-1.57638 0.561017,-0.45207 1.092107,-0.82195 1.180201,-0.82195 0.716103,0 -0.24936,1.27104 -1.64314,2.1632 -1.081507,0.69228 -3.066678,1.2636 -4.333802,1.24725 -0.519566,-0.007 -1.406721,-0.14676 -1.971457,-0.31124 z m -0.6599,-1.25954 c -1.83635,-2.28453 -2.201712,-7.19928 -0.781514,-10.5127 0.194437,-0.45364 0.475894,-0.96003 0.62546,-1.12532 0.457324,-0.50541 0.115107,-0.52458 -0.71197,-0.0399 -1.637118,0.95942 -2.636151,2.57186 -2.808633,4.53314 -0.31628,3.59641 0.643453,5.8526 3.053067,7.1773 0.517675,0.28459 0.970348,0.51883 1.005941,0.52054 0.03559,0.002 -0.136465,-0.24718 -0.382351,-0.55308 z m 7.530145,-11.71183 c -0.04661,-0.0466 -0.245796,-0.0336 -0.442644,0.0289 l -0.357904,0.1136 0.387791,0.47144 0.387791,0.47145 0.05485,-0.5003 c 0.03017,-0.27517 0.01672,-0.53844 -0.02989,-0.58504 z m 48.4370374,12.78877 c -0.8182487,-0.26301 -1.6414414,-1.01528 -2.126414,-1.94321 -0.4142506,-0.79261 -0.4640979,-1.07137 -0.4647824,-2.59915 -6.846e-4,-1.37054 0.069853,-1.86467 0.3538769,-2.48142 0.8219229,-1.78476 2.215904,-2.73811 4.0036769,-2.73811 1.7748422,0 2.8380475,0.79858 3.3564233,2.52101 0.3993125,1.32681 0.60176851,1.2439 -3.0373922,1.2439 h -3.2736108 l 0.1201757,1.06222 c 0.2052762,1.8144 0.7675183,2.76484 2.0135815,3.40386 1.2945792,0.6639 2.6483734,0.28712 3.9640548,-1.10324 0.79080936,-0.8357 0.82783376,-0.85488 0.7136973,-0.36956 -0.1874118,0.79688 -1.148453,2.00519 -2.0267091,2.54817 -0.628951,0.38886 -1.0434926,0.50579 -1.9564423,0.55189 -0.6371174,0.0322 -1.3751788,-0.0112 -1.6401356,-0.0964 z m 3.2106052,-7.06587 c -0.233104,-1.06132 -0.6244982,-1.65416 -1.2223307,-1.85146 -0.8082357,-0.26675 -1.8088136,-0.0545 -2.3252436,0.49321 -0.4273422,0.45323 -0.8645125,1.6281 -0.6759764,1.81663 0.05341,0.0534 1.0530092,0.0971 2.2213323,0.0971 h 2.1242252 z m 40.4671664,7.07711 c -1.832548,-0.60102 -3.061532,-2.29411 -3.199595,-4.40788 -0.205451,-3.14551 1.726234,-5.36525 4.669007,-5.36525 4.093174,0 6.089203,4.5354 3.565662,8.10193 -0.799416,1.12981 -1.819612,1.66258 -3.345743,1.74722 -0.68569,0.038 -1.445889,0.004 -1.689331,-0.076 z m 2.981781,-0.8134 c 0.640874,-0.47689 0.933648,-1.07833 1.133306,-2.32814 0.173059,-1.0833 0.03605,-2.98267 -0.275979,-3.82594 -0.912921,-2.46719 -3.192493,-3.03374 -4.628348,-1.1503 -0.462988,0.60732 -0.479137,0.69698 -0.470112,2.60995 0.0099,2.08888 0.227963,2.89128 1.130385,4.15861 0.70116,0.98469 2.167979,1.23735 3.110748,0.53582 z m 13.496858,0.79595 c -0.764768,-0.32504 -0.890839,-1.05099 -0.890839,-5.12962 v -3.7704 h -0.684528 c -0.37649,0 -0.684528,-0.077 -0.684528,-0.17113 0,-0.0941 0.05982,-0.17113 0.132942,-0.17113 0.233734,0 1.830425,-1.68784 2.387887,-2.5242 0.431145,-0.64684 0.559547,-0.44067 0.559547,0.89845 v 1.28349 h 1.026792 c 0.912703,0 1.026791,0.038 1.026791,0.34226 0,0.30457 -0.114088,0.34226 -1.036055,0.34226 h -1.036053 l 0.05204,3.77897 c 0.04886,3.54792 0.07297,3.79446 0.394311,4.03223 0.403863,0.29884 1.198457,0.19087 1.658356,-0.22533 0.402423,-0.36419 0.587906,-0.18128 0.272628,0.26884 -0.686764,0.9805 -2.178118,1.47084 -3.179295,1.04531 z m 6.51937,-0.003 c -0.506376,-0.20392 -1.055891,-0.77227 -1.256291,-1.29937 -0.09036,-0.23767 -0.164299,-1.89412 -0.164299,-3.681 0,-3.61724 -0.142425,-4.25866 -0.945621,-4.25866 -0.23289,0 -0.423435,-0.077 -0.423435,-0.17113 0,-0.10141 0.627485,-0.17113 1.540188,-0.17113 h 1.540188 v 3.75177 3.75177 l 0.443041,0.52653 c 0.683334,0.81209 1.911574,0.72459 2.936815,-0.20922 0.373852,-0.34051 0.385047,-0.44658 0.385047,-3.64825 0,-3.21358 -0.0097,-3.30432 -0.380343,-3.56394 -0.209186,-0.14652 -0.555728,-0.2664 -0.770093,-0.2664 -0.214364,0 -0.389752,-0.077 -0.389752,-0.17113 0,-0.10266 0.683513,-0.17113 1.708277,-0.17113 h 1.708277 l 0.04583,4.14995 0.04583,4.14995 0.556179,0.16373 c 0.305898,0.0901 0.556178,0.20631 0.556178,0.25833 0,0.052 -0.539012,0.26952 -1.197804,0.48333 -0.658793,0.21381 -1.313372,0.43309 -1.454621,0.4873 -0.208013,0.0798 -0.256818,-0.0703 -0.256818,-0.78997 v -0.88851 l -0.791884,0.69704 c -1.072874,0.94439 -2.40961,1.28301 -3.434881,0.87014 z m 19.98307,-0.12652 c -1.224069,-0.62417 -1.285754,-0.84328 -1.38122,-4.90626 -0.08931,-3.80115 -0.172768,-4.20625 -0.866514,-4.20625 -0.171165,0 -0.358804,-0.077 -0.416975,-0.17113 -0.06754,-0.10928 0.454574,-0.17113 1.444521,-0.17113 h 1.550288 v 3.5137 c 0,3.7349 0.127656,4.48215 0.829922,4.85799 0.859207,0.45983 2.417905,-0.007 2.856954,-0.85647 0.190295,-0.36799 0.249159,-1.18978 0.249159,-3.47846 0,-2.86232 -0.01679,-3.01228 -0.374532,-3.34557 -0.205993,-0.19191 -0.59104,-0.34893 -0.85566,-0.34893 -0.26462,0 -0.481127,-0.077 -0.481127,-0.17113 0,-0.10268 0.684528,-0.17113 1.711319,-0.17113 h 1.71132 v 4.00937 c 0,4.35149 0.04104,4.54722 0.95345,4.54722 0.228583,0 0.415606,0.077 0.415606,0.17114 0,0.0941 -0.11696,0.17113 -0.259912,0.17113 -0.142952,0 -0.810957,0.19252 -1.484455,0.42783 -0.673499,0.2353 -1.249623,0.42783 -1.280276,0.42783 -0.03065,0 -0.05573,-0.40108 -0.05573,-0.89129 v -0.89129 l -0.735995,0.72232 c -1.084561,1.06442 -2.384801,1.34453 -3.53014,0.76051 z m 10.742394,0.0977 c -0.803845,-0.2141 -1.541757,-0.88027 -2.050943,-1.85156 -0.356152,-0.67936 -0.403714,-1.00195 -0.403714,-2.73811 0,-1.69191 0.0519,-2.06405 0.369944,-2.65254 0.865644,-1.60175 2.276297,-2.4835 3.965327,-2.4786 1.722881,0.005 3.05845,1.15913 3.412299,2.94874 l 0.16082,0.81335 h -3.335712 -3.335711 l 0.102424,0.72731 c 0.193513,1.37412 0.629516,2.49876 1.183503,3.05274 1.473212,1.47321 3.349208,1.30245 4.88726,-0.44487 0.397519,-0.45161 0.771773,-0.77209 0.831678,-0.71218 0.211047,0.21104 -0.721585,1.69664 -1.519224,2.41998 -1.140386,1.03416 -2.626294,1.35298 -4.267951,0.91574 z m 3.197072,-7.10795 c -0.203757,-1.08612 -0.545119,-1.5577 -1.28886,-1.78053 -0.520462,-0.15594 -0.840193,-0.15786 -1.340199,-0.008 -0.76137,0.22811 -1.100104,0.56874 -1.372684,1.38037 -0.357926,1.06576 -0.398758,1.04404 1.96283,1.04404 h 2.158195 z m 5.386283,7.11883 c -0.423552,-0.0845 -0.98187,-0.10845 -1.240707,-0.0532 l -0.470613,0.10043 v -1.63935 c 0,-0.90164 0.0645,-1.63935 0.143337,-1.63935 0.07883,0 0.286625,0.42155 0.461758,0.93678 0.392127,1.15362 0.904414,1.72713 1.776018,1.98827 0.803185,0.24063 1.378415,0.1196 2.008855,-0.42268 0.95938,-0.82522 0.48021,-2.11385 -1.08725,-2.92397 -1.82059,-0.94096 -2.831053,-1.8186 -3.123254,-2.71271 -0.284751,-0.87132 -0.104508,-1.70707 0.522059,-2.42069 0.648597,-0.73871 1.454505,-1.00999 2.600935,-0.87552 0.48965,0.0574 1.15981,0.12238 1.48924,0.14432 0.69315,0.0461 0.80276,0.29277 0.83541,1.87955 0.0211,1.02427 -0.23372,1.33107 -0.42638,0.5134 -0.18179,-0.7716 -0.76595,-1.70411 -1.21959,-1.94689 -1.17234,-0.62742 -2.612082,0.0203 -2.612082,1.17509 0,0.90996 0.238421,1.17083 2.015212,2.20499 2.01189,1.171 2.55424,1.6508 2.80245,2.47923 0.29162,0.97333 0.0551,1.79988 -0.7283,2.5451 -0.90881,0.86453 -1.88601,1.03854 -3.747098,0.66722 z m -99.59880673,-0.15112 c 0,-0.0941 0.18058872,-0.17113 0.40130618,-0.17113 0.89486105,0 0.96774955,-0.31744 0.96774955,-4.21476 0,-3.86457 -0.030039,-3.99957 -0.88988621,-3.99957 -1.09797074,0 -0.25382123,-0.41095 2.38729101,-1.16218 0.148818,-0.0423 0.2139149,0.17732 0.2139149,0.7218 0,0.43045 0.028307,0.78264 0.062905,0.78264 0.034598,0 0.5796907,-0.34654 1.2113166,-0.77009 0.9809353,-0.65779 1.2736291,-0.7701 2.0070443,-0.7701 0.9856483,0 1.7036153,0.41324 2.1213006,1.22096 l 0.2634439,0.50944 0.5943927,-0.52188 c 0.8984446,-0.78885 1.8449722,-1.20852 2.7257062,-1.20852 1.122319,0 1.757366,0.38832 2.18882,1.33843 0.321605,0.7082 0.37122,1.18633 0.429369,4.1378 0.07075,3.59076 0.157616,3.93603 0.990325,3.93603 0.215164,0 0.438801,0.077 0.496972,0.17113 0.0686,0.11099 -0.739795,0.17114 -2.300181,0.17114 -2.404697,0 -2.972889,-0.14185 -1.764203,-0.44044 l 0.641745,-0.15853 0.0462,-3.64091 0.0462,-3.64092 -0.423466,-0.42347 c -0.70495,-0.70495 -2.064956,-0.49579 -3.1343541,0.48204 -0.3697443,0.33809 -0.3850092,0.46482 -0.384092,3.18871 5.134e-4,1.56015 0.080334,3.12245 0.1773561,3.47179 0.1497387,0.53914 0.2660024,0.65197 0.7691406,0.74635 1.2492354,0.23436 0.5007544,0.41538 -1.7175455,0.41538 -2.1798824,0 -2.9468514,-0.17217 -1.794062,-0.40273 0.788773,-0.15775 0.8851579,-0.64554 0.8226006,-4.163 -0.050576,-2.84381 -0.086191,-3.15257 -0.4145141,-3.59377 -0.4371755,-0.58747 -1.1923928,-0.70355 -2.1318218,-0.32767 -1.3974517,0.55915 -1.3594638,0.43826 -1.3594638,4.32644 0,3.24976 0.020486,3.47512 0.3310137,3.64131 0.1820571,0.0974 0.4900946,0.17715 0.6845279,0.17715 0.1944333,0 0.3535142,0.077 0.3535142,0.17113 0,0.10564 -0.8841825,0.17114 -2.3102816,0.17114 -1.42609921,0 -2.31028163,-0.0655 -2.31028163,-0.17114 z m 22.07602373,0.0115 c 0,-0.15842 0.171707,-0.22711 1.0619,-0.42479 0.354486,-0.0787 0.504603,-0.25284 0.64079,-0.74322 0.248862,-0.8961 0.239901,-11.01693 -0.01023,-11.56593 -0.203649,-0.44695 -0.806488,-0.79702 -1.372506,-0.79702 -0.203176,0 -0.318384,-0.0892 -0.276311,-0.21392 0.101302,-0.30029 6.165202,-0.27986 7.571734,0.0255 1.249104,0.27119 2.495585,0.91857 2.947582,1.53087 0.869905,1.17842 0.925097,2.71166 0.145495,4.04195 -0.817486,1.39493 -2.676735,2.14538 -5.315208,2.14538 h -1.457206 v 2.30223 c 0,1.37257 0.07959,2.47692 0.197103,2.73483 0.199961,0.43886 0.308664,0.4971 1.300301,0.69669 1.312042,0.26407 0.381496,0.42701 -2.43863,0.42701 -1.738188,0 -2.99481,-0.067 -2.99481,-0.1596 z m 7.363816,-7.24186 c 1.124912,-0.56829 1.535047,-1.28843 1.535047,-2.69533 0,-1.37521 -0.398835,-2.09801 -1.490099,-2.70047 -0.864424,-0.47723 -2.817866,-0.71035 -3.211923,-0.38332 -0.215342,0.17872 -0.260805,0.73484 -0.260805,3.19031 V 267.67 h 1.332794 c 1.042235,0 1.498959,-0.0839 2.094986,-0.38504 z m 14.541077,7.23808 c 0,-0.0899 0.271619,-0.21434 0.603599,-0.27662 0.331979,-0.0623 0.678521,-0.25323 0.770094,-0.42433 0.225706,-0.42173 0.216301,-6.76605 -0.01066,-7.19013 -0.113989,-0.21299 -0.358044,-0.33101 -0.684524,-0.33101 -0.851108,0 -0.574683,-0.23811 0.897411,-0.77303 0.772632,-0.28075 1.465716,-0.53613 1.540188,-0.5675 0.07447,-0.0314 0.135401,0.37292 0.135401,0.89844 0,0.52552 0.07701,0.95548 0.171132,0.95548 0.09412,0 0.171132,-0.079 0.171132,-0.17563 0,-0.0966 0.344516,-0.52015 0.76559,-0.94123 0.643021,-0.64302 0.871657,-0.76559 1.428099,-0.76559 0.769156,0 1.22895,0.40064 1.22895,1.07083 0,0.46365 -0.391695,0.98357 -0.739534,0.98163 -0.11093,-6.2e-4 -0.43272,-0.15413 -0.715087,-0.34114 -0.670761,-0.44422 -1.142637,-0.4314 -1.574538,0.0428 -0.670663,0.73632 -0.735744,1.0729 -0.735744,3.80493 0,3.19465 0.134094,3.61739 1.201574,3.78809 1.420698,0.22718 0.586355,0.4074 -1.886102,0.4074 -1.516007,0 -2.566979,-0.0669 -2.566979,-0.16338 z M 89.403419,263.349 c 2.232782,-3.03514 2.235104,-3.03759 2.878498,-3.03759 0.377387,0 0.709772,0.1164 0.864895,0.30288 0.34674,0.41684 2.125263,2.81386 2.283032,3.07698 0.244096,0.40709 -0.489626,0.22338 -1.025201,-0.2567 -1.847518,-1.65608 -2.004946,-1.75081 -2.440054,-1.46817 -0.224058,0.14554 -0.609105,0.44343 -0.85566,0.66198 -1.199678,1.0634 -1.499153,1.2764 -1.794866,1.27659 -0.293952,1.9e-4 -0.286732,-0.0447 0.08936,-0.55597 z"
         id="path890"
         inkscape:connector-curvature="0" />
    </g>
  </g>
</svg>
