<?xml version="1.0" encoding="UTF-8" standalone="no"?>
<!-- Created with Inkscape (http://www.inkscape.org/) -->

<svg
   xmlns:dc="http://purl.org/dc/elements/1.1/"
   xmlns:cc="http://creativecommons.org/ns#"
   xmlns:rdf="http://www.w3.org/1999/02/22-rdf-syntax-ns#"
   xmlns:svg="http://www.w3.org/2000/svg"
   xmlns="http://www.w3.org/2000/svg"
   xmlns:sodipodi="http://sodipodi.sourceforge.net/DTD/sodipodi-0.dtd"
   xmlns:inkscape="http://www.inkscape.org/namespaces/inkscape"
   width="112.903mm"
   height="28mm"
   viewBox="0 0 112.903 28"
   version="1.1"
   id="svg8"
   inkscape:version="0.92.3 (2405546, 2018-03-11)"
   sodipodi:docname="medium.svg">
  <defs
     id="defs2" />
  <sodipodi:namedview
     id="base"
     pagecolor="#ffffff"
     bordercolor="#666666"
     borderopacity="1.0"
     inkscape:pageopacity="0.0"
     inkscape:pageshadow="2"
     inkscape:zoom="0.98994949"
     inkscape:cx="181.6322"
     inkscape:cy="64.200432"
     inkscape:document-units="mm"
     inkscape:current-layer="layer1"
     showgrid="false"
     inkscape:window-width="1325"
     inkscape:window-height="713"
     inkscape:window-x="41"
     inkscape:window-y="27"
     inkscape:window-maximized="1" />
  <metadata
     id="metadata5">
    <rdf:RDF>
      <cc:Work
         rdf:about="">
        <dc:format>image/svg+xml</dc:format>
        <dc:type
           rdf:resource="http://purl.org/dc/dcmitype/StillImage" />
        <dc:title></dc:title>
      </cc:Work>
    </rdf:RDF>
  </metadata>
  <g
     inkscape:label="Camada 1"
     inkscape:groupmode="layer"
     id="layer1"
     transform="translate(0,-269)">
    <path
       style="fill:#1a1a1a;stroke-width:0.02822581"
       d="m 0,283 v -14 h 56.451595 56.451625 v 14 14 H 56.451595 0 Z m 15.4395,7.42597 c 1.3706,-0.23957 2.5182,-0.73633 3.5,-1.51499 1.0429,-0.82704 1.8246,-1.87371 2.3111,-3.0942 0.7093,-1.77959 0.709,-3.77657 -9e-4,-5.56667 -0.2471,-0.62325 -0.6818,-1.3663 -1.1158,-1.90728 -0.2632,-0.32804 -0.8139,-0.87625 -1.138,-1.13271 -1.0898,-0.86253 -2.2178,-1.34819 -3.6411,-1.56776 -0.4051,-0.0625 -1.4596,-0.0702 -1.8629,-0.0136 -1.7258,0.24211 -3.1654,0.9456 -4.3445998,2.123 -1.4152,1.41308 -2.1818,3.27501 -2.1781,5.29061 0,2.09306 0.8024,3.96144 2.3135,5.41178 1.0597998,1.01723 2.3766998,1.67681 3.8704998,1.93861 0.1785,0.0313 0.3754,0.0623 0.4375,0.0688 0.2236,0.0236 1.6694,-0.004 1.8488,-0.0356 z m 43.340895,-0.11552 c 1.71,-0.29233 2.9168,-1.56159 3.3858,-3.56094 0.039,-0.16549 0.079,-0.37011 0.089,-0.45471 0.018,-0.1524 0.017,-0.15411 -0.069,-0.18403 l -0.087,-0.0302 -0.1183,0.21677 c -0.2512,0.4602 -0.693,0.9706 -1.0844,1.25277 -0.233,0.168 -0.6314,0.35511 -0.9313,0.43747 -0.2511,0.069 -0.329,0.0774 -0.7056,0.0763 -0.3664,-10e-4 -0.4607,-0.0112 -0.7001,-0.0757 -0.7358,-0.19798 -1.3511,-0.66019 -1.8119,-1.36121 -0.2069,-0.31465 -0.3115,-0.53292 -0.4378,-0.91359 -0.1582,-0.47656 -0.2014,-0.72135 -0.2184,-1.23863 l -0.015,-0.45867 h 3.1511 3.1511 v -0.0806 c 0,-0.21733 -0.065,-0.83511 -0.1149,-1.0944 -0.1317,-0.68287 -0.3894,-1.31459 -0.7318,-1.7945 -0.2243,-0.31432 -0.6347,-0.71136 -0.9435,-0.9126 -1.2206,-0.79562 -2.9701,-0.91273 -4.2871,-0.28695 -1.8393,0.87389 -2.8618,2.96095 -2.727,5.56621 0.1282,2.47822 1.415,4.34633 3.3248,4.82699 0.5457,0.13734 1.3192,0.16618 1.8809,0.0702 z m -2.6393,-6.97285 c 0,-0.35037 0.1388,-1.16046 0.2731,-1.59365 0.1112,-0.35888 0.3795,-0.87563 0.5708,-1.09929 0.1964,-0.22966 0.5046,-0.44668 0.7314,-0.51506 0.2101,-0.0634 0.5894,-0.0629 0.7984,9.6e-4 0.2013,0.0615 0.3854,0.17853 0.5499,0.34942 0.1551,0.16101 0.3785,0.60239 0.4632,0.91492 0.096,0.35521 0.1687,0.93699 0.1883,1.51332 l 0.019,0.54335 h -1.7969 -1.7968 v -0.11402 z m 11.3216,6.93575 c 0.8192,-0.21236 1.5041,-0.76866 1.8786,-1.52579 l 0.1083,-0.21901 0.014,0.77101 0.014,0.771 2.0958,0.007 2.0958,0.007 -5e-4,-0.0919 c -4e-4,-0.0913 0,-0.0925 -0.2611,-0.17201 -0.303,-0.0931 -0.4851,-0.2004 -0.6412,-0.37765 -0.1474,-0.16748 -0.2173,-0.36479 -0.2532,-0.71423 -0.02,-0.19121 -0.029,-2.46776 -0.029,-6.7907 0,-3.80612 -0.01,-6.50305 -0.025,-6.50305 -0.014,0 -0.106,0.024 -0.2046,0.0534 -0.099,0.0294 -0.3636,0.10663 -0.5887,0.17174 -0.2251,0.0651 -0.549,0.16039 -0.7197,0.21173 -0.1708,0.0514 -0.5391,0.15961 -0.8186,0.24058 -0.2794,0.081 -0.6478,0.18903 -0.8185,0.24013 -0.4328,0.1295 -1.1538,0.34118 -1.3478,0.39569 -0.1503,0.0422 -0.1623,0.0517 -0.1623,0.12828 v 0.0827 h 0.3348 c 0.4212,0 0.5867,0.0307 0.8432,0.15653 0.2174,0.10665 0.3101,0.20935 0.419,0.46444 0.05,0.11652 0.055,0.21613 0.063,1.20571 l 0.01,1.0787 -0.2203,-0.11084 c -0.4594,-0.23118 -0.9807,-0.32771 -1.6316,-0.3021 -1.1188,0.044 -2.1197,0.46684 -2.9359,1.24028 -0.4854,0.46007 -0.8189,0.91889 -1.1199,1.5412 -0.2753,0.56903 -0.4451,1.13935 -0.5642,1.89543 -0.055,0.34992 -0.065,0.51776 -0.065,1.15726 -4e-4,0.64441 0.01,0.80857 0.066,1.18549 0.1936,1.27423 0.6206,2.22252 1.3164,2.92367 0.5119,0.51577 1.0393,0.79749 1.7427,0.93096 0.3317,0.0629 1.0671,0.0352 1.4077,-0.0531 z m 0.4204,-1.60445 c -0.7951,-0.25034 -1.3767,-1.25596 -1.6136,-2.78987 -0.056,-0.3639 -0.063,-0.51879 -0.065,-1.39717 0,-1.25767 0.06,-1.7741 0.3072,-2.58884 0.35,-1.15208 0.9619,-1.80243 1.73,-1.83866 0.474,-0.0224 0.8791,0.17041 1.1131,0.52965 l 0.1085,0.16668 v 3.62376 3.62377 l -0.06,0.11776 c -0.083,0.16357 -0.331,0.39707 -0.5098,0.48079 -0.3081,0.14425 -0.6942,0.1718 -1.0107,0.0721 z m 15.41306,1.60599 c 0.49427,-0.13072 0.93739,-0.39183 1.32589,-0.78129 0.25326,-0.25388 0.43458,-0.50514 0.6021,-0.83433 l 0.10055,-0.19758 9.6e-4,0.8115 9.6e-4,0.81149 h 2.10461 2.10461 l -0.009,-0.0905 c -0.009,-0.0879 -0.0163,-0.0928 -0.26817,-0.16988 -0.34483,-0.10561 -0.58431,-0.26571 -0.7083,-0.47352 -0.20545,-0.34435 -0.18879,0.0916 -0.19718,-5.16002 -0.007,-4.46471 -0.0102,-4.7217 -0.0565,-4.70771 -0.0269,0.008 -0.15052,0.0457 -0.27472,0.0835 -0.12419,0.0378 -0.45443,0.13454 -0.73387,0.21506 -0.27943,0.0805 -0.67318,0.19497 -0.875,0.25431 -0.40682,0.11962 -0.78949,0.23146 -1.56076,0.45614 l -0.51641,0.15044 0.008,0.0848 c 0.008,0.0798 0.0174,0.086 0.16358,0.10641 0.0854,0.0119 0.23522,0.0607 0.33297,0.1085 0.14031,0.0686 0.19803,0.11754 0.27415,0.23262 0.2013,0.30431 0.19304,0.1571 0.20406,3.63767 0.0111,3.4961 0.0294,3.17292 -0.19565,3.44327 -0.31425,0.37747 -0.89534,0.57107 -1.3953,0.46487 -0.52675,-0.11189 -0.8507,-0.44368 -1.01013,-1.03455 -0.0561,-0.20784 -0.0575,-0.29578 -0.0659,-4.21601 -0.007,-3.29835 -0.0152,-4.00123 -0.0458,-3.98947 -0.0405,0.0155 -1.04001,0.30516 -1.58431,0.45906 -0.1863,0.0527 -0.8404,0.23978 -1.4536,0.41578 l -1.115,0.32001 -0.01,0.0897 c -0.01,0.0815 0,0.0897 0.071,0.0902 0.136,8.5e-4 0.444,0.0762 0.5879,0.14384 0.2866,0.1347 0.4318,0.37074 0.4913,0.79857 0.02,0.14339 0.03,1.13804 0.03,2.89486 0,2.73534 0.01,3.01924 0.1129,3.51981 0.212,1.02282 0.8268,1.74628 1.7087,2.01055 0.3794,0.11371 0.6217,0.14258 1.11392,0.13269 0.38808,-0.008 0.51073,-0.0213 0.73567,-0.0808 z m -29.59656,-0.28508 c 0,-0.0771 -0.011,-0.0838 -0.2399,-0.14958 -0.132,-0.0378 -0.2971,-0.0961 -0.367,-0.12954 -0.1881,-0.09 -0.3987,-0.31556 -0.4807,-0.51513 l -0.07,-0.16935 -0.01,-5.81452 c -0.01,-4.02779 0,-5.87089 0.022,-5.99798 0.038,-0.23286 0.17,-0.50619 0.2982,-0.61876 0.139,-0.12199 0.4064,-0.25138 0.6438,-0.31146 0.1918,-0.0485 0.2016,-0.055 0.2101,-0.13897 l 0.01,-0.0881 h -2.1194 -2.1194 l -0.029,0.0776 c -0.028,0.0738 -0.3328,0.79131 -1.0703,2.51916 -0.1822,0.42691 -0.4932,1.15725 -0.6911,1.62298 -0.1978,0.46573 -0.4712,1.10716 -0.6074,1.4254 -0.1363,0.31825 -0.4474,1.04859 -0.6913,1.62299 -0.8921,2.1001 -0.8104,1.92423 -0.8515,1.8315 -0.02,-0.0448 -0.1873,-0.43715 -0.3719,-0.87183 -0.3982,-0.93753 -1.1356,-2.67053 -1.7535,-4.12096 -0.2447,-0.5744 -0.607,-1.42541 -0.8051,-1.89113 -0.1982,-0.46573 -0.4903,-1.15162 -0.6492,-1.5242 l -0.289,-0.67742 -2.2777,-0.007 -2.2778,-0.007 0.01,0.0898 c 0.01,0.0844 0.019,0.092 0.1695,0.12615 0.1959,0.0443 0.4938,0.1766 0.6279,0.27887 0.125,0.0954 0.2526,0.30106 0.3181,0.51292 0.048,0.15544 0.051,0.46645 0.051,6.00667 v 5.84274 l -0.064,0.17857 c -0.035,0.0982 -0.098,0.22854 -0.138,0.28961 -0.1054,0.15921 -0.3683,0.32369 -0.6548,0.40966 -0.1339,0.0402 -0.2594,0.0778 -0.2788,0.0836 -0.019,0.006 -0.035,0.0491 -0.035,0.0961 v 0.0856 h 1.5401 1.5401 l -0.01,-0.0882 c -0.01,-0.0852 -0.018,-0.0908 -0.267,-0.1645 -0.5941,-0.17565 -0.8296,-0.46445 -0.8857,-1.08648 -0.033,-0.36433 -0.036,-10.45143 0,-10.41545 0.013,0.0148 0.1672,0.36341 0.3416,0.7748 0.1745,0.41139 0.3717,0.875 0.4382,1.03024 0.066,0.15524 0.2826,0.6633 0.4802,1.12903 0.1977,0.46573 0.4516,1.0627 0.5644,1.32661 0.3217,0.7533 1.1659,2.73792 1.2905,3.03428 0.062,0.14748 0.1544,0.3634 0.2053,0.47984 0.051,0.11643 0.1972,0.45937 0.3253,0.76209 0.1282,0.30272 0.3466,0.81714 0.4855,1.14315 0.3443,0.8083 0.6148,1.446 0.7424,1.75 0.059,0.13972 0.119,0.26991 0.1341,0.28931 0.015,0.0194 0.082,0.0353 0.1475,0.0353 0.066,0 0.1327,-0.0159 0.1481,-0.0353 0.015,-0.0194 0.19,-0.41633 0.3879,-0.88205 0.1979,-0.46573 0.4521,-1.06271 0.5647,-1.32662 0.1127,-0.26391 0.3095,-0.72752 0.4374,-1.03024 0.1279,-0.30272 0.2741,-0.64566 0.325,-0.7621 0.051,-0.11643 0.254,-0.59274 0.4514,-1.05846 0.1975,-0.46573 0.4136,-0.97379 0.4801,-1.12904 0.067,-0.15524 0.3399,-0.79667 0.6074,-1.4254 0.5756,-1.35271 1.0139,-2.38158 1.512,-3.54932 0.2003,-0.46956 0.3738,-0.85379 0.3854,-0.85383 0.012,-3e-5 0.021,2.42012 0.021,5.37813 0,4.79434 0,5.40167 -0.045,5.59436 -0.1,0.48318 -0.3249,0.70124 -0.8926,0.8647 -0.2245,0.0646 -0.2345,0.071 -0.243,0.15553 l -0.01,0.0881 2.6903,-0.007 2.6903,-0.007 z m 25.0786,0.002 c 0,-0.0927 0,-0.0927 -0.27,-0.17382 -0.3048,-0.0916 -0.469,-0.18875 -0.6321,-0.37404 -0.1572,-0.1786 -0.2228,-0.37548 -0.2552,-0.76605 -0.016,-0.19342 -0.027,-2.16066 -0.028,-4.76779 -3e-4,-2.44118 0,-4.43835 -0.01,-4.43815 0,2.2e-4 -0.09,0.0265 -0.1905,0.0584 -0.1009,0.0319 -0.2915,0.0876 -0.4234,0.12384 -0.132,0.0362 -0.8877,0.25287 -1.6795,0.48148 -0.7917,0.22862 -1.5379,0.44103 -1.6582,0.47204 -0.2155,0.0555 -0.2188,0.0577 -0.2188,0.1466 v 0.0902 l 0.2082,0.0324 c 0.5787,0.09 0.8256,0.32212 0.92,0.86499 0.019,0.10981 0.029,1.56872 0.029,4.23623 0,2.23781 0.01,4.07721 0.019,4.08756 0.01,0.0103 0.9566,0.0188 2.1028,0.0188 h 2.084 z m 15.608896,-0.003 c 0,-0.0892 -0.008,-0.0975 -0.12364,-0.12657 -0.37798,-0.0952 -0.60003,-0.2819 -0.69293,-0.58269 -0.0578,-0.18722 -0.0584,-0.22711 -0.0584,-3.90149 v -3.71234 l 0.0872,-0.15238 c 0.11926,-0.20845 0.31837,-0.41364 0.51275,-0.52844 0.33506,-0.19787 0.83366,-0.21104 1.19763,-0.0316 0.35508,0.17504 0.55374,0.47499 0.6572,0.99226 0.056,0.27993 0.0573,0.37927 0.0573,4.2127 v 3.92601 h 1.96169 1.9617 v -0.0954 c 0,-0.0901 -0.007,-0.0973 -0.13259,-0.12883 -0.37131,-0.0935 -0.58623,-0.27725 -0.6937,-0.5931 l -0.0628,-0.18465 -0.007,-3.48404 c -0.004,-1.91622 -0.0188,-3.55473 -0.0325,-3.64113 -0.024,-0.15028 -0.0202,-0.16643 0.0867,-0.37293 0.22873,-0.44166 0.62391,-0.71748 1.072009,-0.7482 0.6986,-0.0479 1.13085,0.26703 1.3304,0.96929 l 0.0627,0.22056 0.008,4.02923 0.008,4.02924 h 2.10217 2.10217 v -0.0921 c 0,-0.0895 -0.005,-0.0936 -0.19053,-0.14661 -0.48714,-0.1394 -0.79711,-0.39094 -0.91645,-0.74371 l -0.0639,-0.18896 -0.0158,-3.52823 c -0.0156,-3.47953 -0.0166,-3.53173 -0.0762,-3.78226 -0.15481,-0.65093 -0.39235,-1.0867 -0.79615,-1.46056 -0.4597,-0.42561 -1.04728,-0.65293 -1.77969,-0.68853 -0.43876,-0.0213 -0.79277,0.0202 -1.15256,0.13522 -0.817499,0.26132 -1.411639,0.76438 -1.770469,1.49906 l -0.12078,0.24728 -0.0347,-0.10616 c -0.27344,-0.83524 -0.87405,-1.41127 -1.7271,-1.65639 -0.85098,-0.24453 -1.82654,-0.13754 -2.52485,0.2769 -0.41594,0.24685 -0.8414,0.72037 -1.04044,1.15797 l -0.0653,0.1436 -0.002,-0.82394 c -8.5e-4,-0.45317 -0.012,-0.83038 -0.0248,-0.83825 -0.0127,-0.008 -0.14928,0.0222 -0.30343,0.0668 -0.15415,0.0446 -0.4962,0.14001 -0.76011,0.21196 -0.26391,0.072 -0.66083,0.18084 -0.88206,0.24198 -0.22121,0.0611 -0.58321,0.16119 -0.804426,0.22233 -0.22122,0.0611 -0.61815,0.17007 -0.88206,0.24206 -0.26391,0.072 -0.49571,0.13589 -0.51512,0.14198 -0.0194,0.006 -0.0353,0.0493 -0.0353,0.0961 0,0.0927 -0.0154,0.0857 0.30474,0.13853 0.34931,0.0576 0.60811,0.22969 0.71757,0.47714 0.13618,0.30786 0.13393,0.23093 0.13446,4.60988 3.2e-4,2.26006 0.009,4.11767 0.0193,4.12802 0.0103,0.0104 0.893106,0.0188 1.961686,0.0188 h 1.94288 v -0.0954 z m -67.787791,0.0264 c 1.2566,-0.24043 2.3941,-1.75454 2.9383,-3.91084 0.2693,-1.06725 0.3693,-1.92895 0.3654,-3.14718 0,-0.74211 -0.031,-1.12036 -0.1386,-1.8629 -0.3143,-2.16061 -1.2303,-3.97843 -2.3712,-4.70577 -0.2266,-0.14443 -0.5531,-0.28404 -0.7706,-0.3295 -0.2109,-0.0441 -0.6647,-0.0381 -0.8753,0.0116 -1.417,0.33406 -2.59,2.15455 -3.0642,4.75555 -0.219,1.20133 -0.2416,2.80047 -0.058,4.06452 0.3804,2.61185 1.5379,4.60563 2.9403,5.065 0.3176,0.10402 0.6891,0.12543 1.0334,0.0596 z m 5.5118,-0.74753 c 0.3781,-0.23052 0.733,-1.36702 0.9395,-3.00807 0.1442,-1.14577 0.1563,-1.39784 0.1555,-3.24597 -8e-4,-1.58763 -0.01,-1.8063 -0.062,-2.35685 -0.094,-0.92754 -0.1955,-1.6293 -0.3157,-2.17496 -0.497,-2.25813 -1.2568,-2.31817 -1.766,-0.13956 -0.2864,1.22542 -0.4372,2.85458 -0.4364,4.71371 10e-4,2.18957 0.2258,4.14625 0.6095,5.30564 0.136,0.41082 0.2545,0.63928 0.4213,0.81231 0.125,0.12963 0.1568,0.14817 0.2542,0.14807 0.061,-5e-5 0.1513,-0.0245 0.2002,-0.0543 z m 44.321195,-10.4625 c 0.5497,-0.12349 1.0268,-0.59503 1.1722,-1.15851 0.058,-0.22306 0.058,-0.67977 0,-0.89768 -0.1472,-0.565 -0.6283,-1.03632 -1.1988,-1.17433 -0.2385,-0.0577 -0.7104,-0.0441 -0.9315,0.0269 -0.8737,0.28045 -1.3413,1.14305 -1.1109,2.04921 0.1266,0.49772 0.5721,0.9668 1.0696,1.12632 0.3221,0.10327 0.6253,0.11181 0.9978,0.0281 z"
       id="path837"
       inkscape:connector-curvature="0" />
  </g>
</svg>
